<svg xmlns="http://www.w3.org/2000/svg" width="50" height="50" viewBox="0 0 50 50" fill="none"><style type="text/css">.st0{fill:#001135;}.st1{fill:none;stroke:#FFFFFF;stroke-width:1.67;stroke-linecap:round;stroke-linejoin:round;stroke-miterlimit:10;}</style><rect width="50" height="50" class="st0"/><g><g><path d="M34.5,25c0,5.25-4.25,9.5-9.5,9.5S15.5,30.25,15.5,25S19.75,15.5,25,15.5c2.63,0,5,1.08,6.75,2.79C33.42,20.04,34.5,22.42,34.5,25z" class="st1"/><g><path d="M38.5,11.58l2.79,3c0.5,0.5,0.5,1.21,0,1.71l-2.79,3.21" class="st1"/><line x1="24.92" y1="15.5" x2="40.79" y2="15.5" class="st1"/></g></g><g><path d="M11.5,38.42L8.71,35.42c-0.5,-0.5,-0.5,-1.21,0,-1.71l2.79,-3.21" class="st1"/><line x1="25.08" y1="34.5" x2="9.21" y2="34.5" class="st1"/></g></g></svg>