<svg xmlns="http://www.w3.org/2000/svg" width="50" height="50" viewBox="0 0 50 50" fill="none"><style type="text/css">.st0{fill:#001135;}.st1{fill:none;stroke:#FFFFFF;stroke-width:1.67;stroke-linecap:round;stroke-linejoin:round;stroke-miterlimit:10;}</style><rect width="50" height="50" class="st0"/><g><g><path d="M39.08,16.58h-4.46c-0.75,0 -1.25,-0.54 -1.29,-1.29V10.79" class="st1"/><path d="M41.25,8.83L34.58,15.54" class="st1"/></g><g><path d="M8.29,14.13V9.67c0,-0.75,0.54,-1.25,1.29,-1.29h4.5" class="st1"/><path d="M16.21,16.25L9.5,9.54" class="st1"/></g><g><path d="M10.38,33.71h4.46c0.75,0,1.25,0.54,1.29,1.29v4.5" class="st1"/><path d="M8.29,41.58L15,34.92" class="st1"/></g><g><path d="M41.67,35.83v4.46c0,0.75,-0.54,-1.25,-1.29,-1.29h-4.5" class="st1"/><path d="M33.79,33.75L40.46,40.42" class="st1"/></g><g><line x1="41.71" y1="20.83" x2="8.38" y2="20.83" class="st1"/><line x1="41.71" y1="25" x2="8.38" y2="25" class="st1"/><line x1="41.71" y1="29.17" x2="8.38" y2="29.17" class="st1"/></g></g></svg>