 <svg xmlns="http://www.w3.org/2000/svg" width="50" height="50" viewBox="0 0 50 50" fill="none"><style type="text/css">.st0{fill:#001135;}.st1{fill:none;stroke:#FFFFFF;stroke-width:1.67;stroke-linecap:round;stroke-linejoin:round;stroke-miterlimit:10;}.st2{fill:#FFFFFF;stroke:#FFFFFF;stroke-width:1.67;stroke-linecap:round;stroke-linejoin:round;stroke-miterlimit:10;}</style><rect width="50" height="50" class="st0"/><path d="M25,31.21c0.33,0,0.63,-0.29,0.63,-0.63c0,-0.33,-0.29,-0.63,-0.63,-0.63c-0.33,0,-0.63,0.29,-0.63,0.63C24.38,30.92,24.67,31.21,25,31.21z" class="st2"/><path d="M19.5,22.75c3.13,-3.13,8.33,-3.13,11.46,0" class="st1"/><path d="M22.38,26.63c1.58,-1.58,4.17,-1.58,5.75,0" class="st1"/><g><path d="M7.08,23.17l15.71,-15.21c1.29,-1.25,3.38,-1.25,4.67,0L42.92,23.21" class="st1"/><path d="M12.46,26.58v13c0,1.83,1.5,3.33,3.33,3.33h7.46c1,0,1.79,-0.79,1.79,-1.79v-3.54" class="st1"/><path d="M37.63,26.58v13c0,1.83,-1.5,3.33,-3.33,3.33h-3.54" class="st1"/></g></svg> 