<svg xmlns="http://www.w3.org/2000/svg" width="50" height="50" viewBox="0 0 50 50" fill="none"><style type="text/css">.st0{fill:#001135;}.st1{fill:none;stroke:#FFFFFF;stroke-width:1.67;stroke-linecap:round;stroke-linejoin:round;stroke-miterlimit:10;}</style><rect width="50" height="50" class="st0"/><g><g><path d="M29.9,8.2V20h11.67" class="st1"/><path d="M38,16.04l3.12,3.17c0.54,0.54,0.54,1.29,0,1.79L38,24.17" class="st1"/></g><g><path d="M8.33,19.92h11.83v-11.67" class="st1"/><path d="M16.17,11.79l3.17,-3.12c0.54,-0.54,1.29,-0.54,1.79,0l3.21,3.17" class="st1"/></g><g><path d="M20,41.79V30H8.33" class="st1"/><path d="M11.88,33.96L8.75,30.79c-0.54,-0.54,-0.54,-1.29,0,-1.79l3.17,-3.21" class="st1"/></g><g><path d="M41.67,29.96H29.83v11.67" class="st1"/><path d="M33.83,38.08l-3.17,3.12c-0.54,0.54,-1.29,0.54,-1.79,0l-3.21,-3.17" class="st1"/></g></g></svg>