<svg xmlns="http://www.w3.org/2000/svg" width="50" height="50" viewBox="0 0 50 50" fill="none"><style type="text/css">.st0{fill:#001135;}.st1{fill:none;stroke:#FFFFFF;stroke-width:1.67;stroke-linecap:round;stroke-linejoin:round;stroke-miterlimit:10;}</style><rect width="50" height="50" class="st0"/><g><g><path d="M40.83,12.54H28.33L21.67,37.46H9.17" class="st1"/><path d="M11.67,41.67l-2.92,-3.38c-0.54,-0.54 -0.54,-1.29 0,-1.79l2.92,-3.17" class="st1"/><path d="M38.33,8.33l2.92,3.38c0.54,0.54 0.54,1.29 0,1.79L38.33,16.67" class="st1"/></g><g><path d="M40.83,37.46H26.67" class="st1"/><path d="M38.33,33.33l2.92,3.17c0.54,0.54 0.54,1.29 0,1.79l-2.92,3.38" class="st1"/></g><g><path d="M23.33,12.54H9.17" class="st1"/><path d="M11.67,16.67l-2.92,-3.17c-0.54,-0.54 -0.54,-1.29 0,-1.79l2.92,-3.38" class="st1"/></g><g><line x1="41.67" y1="25" x2="30" y2="25" class="st1"/><line x1="8.33" y1="25" x2="20" y2="25" class="st1"/></g></g></svg>