<?xml version="1.0" encoding="utf-8"?>
<svg viewBox="220.222 137.943 81.8 87.413" xmlns="http://www.w3.org/2000/svg">
  <path id="containerlab_export_white_ink-liquid" data-name="containerlab export white ink-liquid" class="cls-3" d="M 253.422 189.556 C 253.022 189.756 252.122 190.256 251.422 190.756 C 250.222 191.656 248.722 191.956 246.822 191.456 C 245.522 191.156 245.422 191.456 246.322 193.556 C 252.022 205.956 269.422 206.456 275.522 194.356 C 276.922 191.656 276.722 191.156 274.822 191.656 C 273.222 192.056 272.122 191.856 270.522 190.656 C 268.422 189.056 265.622 189.056 264.122 190.656 C 262.622 192.256 259.522 192.156 257.722 190.456 C 256.722 189.456 254.622 189.056 253.422 189.556" style="stroke-width: 0px; fill: rgb(255, 255, 255); stroke: rgb(255, 255, 255);" transform="matrix(1, 0, 0, 1, 0, -2.842170943040401e-14)"/>
  <path class="cls-5" d="M 297.122 153.156 L 289.322 148.756 L 271.922 138.656 C 270.222 137.656 268.322 137.756 266.622 138.656 C 265.022 139.656 264.022 141.356 264.022 143.256 L 264.322 159.656 L 264.322 164.256 C 264.322 164.256 264.322 166.256 264.322 166.256 C 264.322 166.956 264.822 167.656 265.522 167.856 C 274.022 170.056 280.222 177.956 280.222 186.456 C 280.222 194.956 271.622 205.656 261.022 205.656 C 250.422 205.656 241.822 197.056 241.822 186.456 C 241.822 175.856 247.222 170.656 255.222 168.156 L 256.822 167.756 C 257.622 167.656 258.222 166.956 258.222 166.156 L 258.222 163.356 C 258.222 163.356 258.222 161.156 258.222 161.156 L 258.222 143.156 C 258.222 141.256 257.222 139.556 255.622 138.656 C 254.022 137.756 252.022 137.756 250.422 138.656 L 242.822 143.056 L 225.122 153.256 C 222.122 155.056 220.222 158.256 220.222 161.756 L 220.222 197.656 C 220.222 201.156 222.122 204.456 225.122 206.156 L 256.222 224.056 C 257.722 224.956 259.422 225.356 261.122 225.356 C 262.822 225.356 264.522 224.956 266.022 224.056 L 297.122 206.156 C 300.122 204.356 302.022 201.156 302.022 197.656 L 302.022 161.756 C 302.022 158.256 300.122 154.956 297.122 153.256 L 297.122 153.156 Z M 298.822 197.656 C 298.822 199.956 297.522 202.156 295.522 203.356 L 264.422 221.256 C 262.422 222.456 259.822 222.456 257.822 221.256 L 226.722 203.356 C 224.722 202.156 223.422 199.956 223.422 197.656 L 223.422 161.756 C 223.422 159.456 224.722 157.256 226.722 156.056 L 239.722 148.556 L 251.922 141.456 C 252.822 140.956 253.622 141.256 253.922 141.456 C 254.222 141.656 254.922 142.156 254.922 143.156 L 254.922 164.756 C 254.922 164.756 254.422 164.856 254.422 164.956 C 245.022 167.856 238.622 176.556 238.622 186.456 C 238.622 196.356 248.722 208.956 261.122 208.956 C 273.522 208.956 283.622 198.856 283.622 186.456 C 283.622 174.056 277.122 168.056 267.722 165.056 L 267.722 159.656 C 267.722 159.656 267.422 143.256 267.422 143.256 C 267.422 142.256 268.122 141.756 268.422 141.556 C 268.722 141.356 269.522 141.056 270.422 141.556 L 287.822 151.656 L 295.622 156.056 C 297.622 157.256 298.922 159.456 298.922 161.756 L 298.922 197.656 L 298.822 197.656 Z" style="stroke-width: 0px; fill: rgb(255, 255, 255);" transform="matrix(1, 0, 0, 1, 0, -2.842170943040401e-14)"/>
  <circle class="cls-1" cx="262.922" cy="186.156" r="1.7" style="stroke-miterlimit: 10; stroke-width: 0.8px; fill: rgb(255, 255, 255); stroke: rgb(255, 255, 255);" transform="matrix(1, 0, 0, 1, 0, -2.842170943040401e-14)"/>
  <circle class="cls-1" cx="255.322" cy="182.256" r="2.4" style="stroke-miterlimit: 10; stroke-width: 0.8px; fill: rgb(255, 255, 255); stroke: rgb(255, 255, 255);" transform="matrix(1, 0, 0, 1, 0, -2.842170943040401e-14)"/>
  <circle class="cls-1" cx="260.122" cy="173.956" r="3.4" style="stroke-miterlimit: 10; stroke-width: 0.8px; fill: rgb(255, 255, 255); stroke: rgb(255, 255, 255);" transform="matrix(1, 0, 0, 1, 0, -2.842170943040401e-14)"/>
</svg>