<?xml version="1.0" encoding="utf-8"?>
<svg viewBox="96.784 35.733 81.8 87.413" xmlns="http://www.w3.org/2000/svg">
  <path id="containerlab_export_white_ink-liquid" data-name="containerlab export white ink-liquid" class="cls-3" d="M 129.984 87.346 C 129.584 87.546 128.684 88.046 127.984 88.546 C 126.784 89.446 125.284 89.746 123.384 89.246 C 122.084 88.946 121.984 89.246 122.884 91.346 C 128.584 103.746 145.984 104.246 152.084 92.146 C 153.484 89.446 153.284 88.946 151.384 89.446 C 149.784 89.846 148.684 89.646 147.084 88.446 C 144.984 86.846 142.184 86.846 140.684 88.446 C 139.184 90.046 136.084 89.946 134.284 88.246 C 133.284 87.246 131.184 86.846 129.984 87.346" style="fill: rgb(60, 190, 239); stroke-width: 0px;"/>
  <path class="cls-5" d="M 173.684 50.946 L 165.884 46.546 L 148.484 36.446 C 146.784 35.446 144.884 35.546 143.184 36.446 C 141.584 37.446 140.584 39.146 140.584 41.046 L 140.884 57.446 L 140.884 62.046 C 140.884 62.046 140.884 64.046 140.884 64.046 C 140.884 64.746 141.384 65.446 142.084 65.646 C 150.584 67.846 156.784 75.746 156.784 84.246 C 156.784 92.746 148.184 103.446 137.584 103.446 C 126.984 103.446 118.384 94.846 118.384 84.246 C 118.384 73.646 123.784 68.446 131.784 65.946 L 133.384 65.546 C 134.184 65.446 134.784 64.746 134.784 63.946 L 134.784 61.146 C 134.784 61.146 134.784 58.946 134.784 58.946 L 134.784 40.946 C 134.784 39.046 133.784 37.346 132.184 36.446 C 130.584 35.546 128.584 35.546 126.984 36.446 L 119.384 40.846 L 101.684 51.046 C 98.684 52.846 96.784 56.046 96.784 59.546 L 96.784 95.446 C 96.784 98.946 98.684 102.246 101.684 103.946 L 132.784 121.846 C 134.284 122.746 135.984 123.146 137.684 123.146 C 139.384 123.146 141.084 122.746 142.584 121.846 L 173.684 103.946 C 176.684 102.146 178.584 98.946 178.584 95.446 L 178.584 59.546 C 178.584 56.046 176.684 52.746 173.684 51.046 L 173.684 50.946 Z M 175.384 95.446 C 175.384 97.746 174.084 99.946 172.084 101.146 L 140.984 119.046 C 138.984 120.246 136.384 120.246 134.384 119.046 L 103.284 101.146 C 101.284 99.946 99.984 97.746 99.984 95.446 L 99.984 59.546 C 99.984 57.246 101.284 55.046 103.284 53.846 L 116.284 46.346 L 128.484 39.246 C 129.384 38.746 130.184 39.046 130.484 39.246 C 130.784 39.446 131.484 39.946 131.484 40.946 L 131.484 62.546 C 131.484 62.546 130.984 62.646 130.984 62.746 C 121.584 65.646 115.184 74.346 115.184 84.246 C 115.184 94.146 125.284 106.746 137.684 106.746 C 150.084 106.746 160.184 96.646 160.184 84.246 C 160.184 71.846 153.684 65.846 144.284 62.846 L 144.284 57.446 C 144.284 57.446 143.984 41.046 143.984 41.046 C 143.984 40.046 144.684 39.546 144.984 39.346 C 145.284 39.146 146.084 38.846 146.984 39.346 L 164.384 49.446 L 172.184 53.846 C 174.184 55.046 175.484 57.246 175.484 59.546 L 175.484 95.446 L 175.384 95.446 Z" style="stroke-width: 0px; fill: rgb(255, 255, 255);"/>
  <circle class="cls-1" cx="139.484" cy="83.946" r="1.7" style="fill: none; stroke: rgb(60, 190, 239); stroke-miterlimit: 10; stroke-width: 0.8px;"/>
  <circle class="cls-1" cx="131.884" cy="80.046" r="2.4" style="fill: none; stroke: rgb(60, 190, 239); stroke-miterlimit: 10; stroke-width: 0.8px;"/>
  <circle class="cls-1" cx="136.684" cy="71.746" r="3.4" style="fill: none; stroke: rgb(60, 190, 239); stroke-miterlimit: 10; stroke-width: 0.8px;"/>
</svg>