<svg id="em1glxjw33nr1" xmlns="http://www.w3.org/2000/svg" xmlns:xlink="http://www.w3.org/1999/xlink" viewBox="0 0 250 191.780000" shape-rendering="geometricPrecision" text-rendering="geometricPrecision" width="250" height="191.780000"><g id="em1glxjw33nr2" transform="matrix(1 0 0 1 -79.26000213500001 -78.47828994999998)"><g id="em1glxjw33nr3"><g id="em1glxjw33nr4"><path id="em1glxjw33nr5" d="M121.530000,224.900000Q118.818000,224.900000,117.330000,226.796000Q115.842000,228.668000,115.842000,232.364000Q115.842000,236.156000,117.330000,237.908000Q118.818000,239.636000,121.530000,239.636000Q122.322000,239.636000,122.970000,239.492000Q123.642000,239.348000,124.194000,239.132000Q124.746000,238.916000,125.178000,238.652000Q125.610000,238.388000,125.922000,238.148000L126.618000,239.228000Q125.802000,239.924000,124.458000,240.452000Q123.138000,240.980000,121.434000,240.980000Q117.762000,240.980000,116.010000,238.748000Q114.258000,236.516000,114.258000,232.364000Q114.258000,230.396000,114.690000,228.788000Q115.146000,227.156000,116.034000,226.004000Q116.946000,224.852000,118.290000,224.228000Q119.658000,223.580000,121.482000,223.580000Q122.466000,223.580000,123.282000,223.772000Q124.098000,223.964000,124.722000,224.252000Q125.346000,224.516000,125.778000,224.828000Q126.234000,225.116000,126.498000,225.356000L125.730000,226.436000Q125.130000,225.932000,124.098000,225.428000Q123.066000,224.900000,121.530000,224.900000Z" transform="matrix(1 0 0 1 10.55200000000002 18.97864700000000)" fill="rgb(152,162,174)" stroke="none" stroke-width="1"/><path id="em1glxjw33nr6" d="M129.190000,232.270000Q129.190000,230.302000,129.646000,228.694000Q130.126000,227.062000,131.038000,225.910000Q131.950000,224.758000,133.294000,224.134000Q134.638000,223.486000,136.366000,223.486000Q138.094000,223.486000,139.414000,224.134000Q140.758000,224.758000,141.646000,225.910000Q142.558000,227.062000,143.014000,228.694000Q143.494000,230.302000,143.494000,232.270000Q143.494000,234.238000,143.014000,235.870000Q142.558000,237.478000,141.646000,238.654000Q140.758000,239.806000,139.414000,240.454000Q138.070000,241.078000,136.342000,241.078000Q134.614000,241.078000,133.270000,240.454000Q131.926000,239.806000,131.014000,238.654000Q130.126000,237.478000,129.646000,235.870000Q129.190000,234.238000,129.190000,232.270000ZM130.774000,232.270000Q130.774000,233.950000,131.110000,235.318000Q131.446000,236.662000,132.142000,237.646000Q132.838000,238.606000,133.870000,239.134000Q134.926000,239.662000,136.342000,239.662000Q137.758000,239.662000,138.790000,239.134000Q139.846000,238.606000,140.542000,237.646000Q141.238000,236.662000,141.574000,235.318000Q141.910000,233.950000,141.910000,232.270000Q141.910000,230.590000,141.574000,229.246000Q141.238000,227.878000,140.542000,226.918000Q139.846000,225.958000,138.790000,225.430000Q137.758000,224.902000,136.342000,224.902000Q134.926000,224.902000,133.870000,225.430000Q132.838000,225.958000,132.142000,226.918000Q131.446000,227.878000,131.110000,229.246000Q130.774000,230.590000,130.774000,232.270000Z" transform="matrix(1 0 0 1 10.55200000000002 18.97864700000000)" fill="rgb(152,162,174)" stroke="none" stroke-width="1"/><path id="em1glxjw33nr7" d="M149.630000,226.340000L149.630000,240.716000L148.166000,240.716000L148.166000,223.844000L149.750000,223.844000L158.126000,238.148000L158.126000,223.844000L159.590000,223.844000L159.590000,240.716000L158.126000,240.716000Z" transform="matrix(1 0 0 1 10.55200000000002 18.97864700000000)" fill="rgb(152,162,174)" stroke="none" stroke-width="1"/><path id="em1glxjw33nr8" d="M168.630000,225.260000L163.446000,225.260000L163.446000,223.844000L175.302000,223.844000L175.302000,225.260000L170.142000,225.260000L170.142000,240.716000L168.630000,240.716000Z" transform="matrix(1 0 0 1 10.55200000000002 18.97864700000000)" fill="rgb(152,162,174)" stroke="none" stroke-width="1"/><path id="em1glxjw33nr9" d="M185,236.010000L178.064000,236.010000L176.552000,240.714000L175.112000,240.714000L180.752000,223.842000L182.432000,223.842000L188.096000,240.714000L186.536000,240.714000ZM178.472000,234.690000L184.568000,234.690000L181.544000,225.570000Z" transform="matrix(1 0 0 1 10.55200000000002 18.97864700000000)" fill="rgb(152,162,174)" stroke="none" stroke-width="1"/><path id="em1glxjw33nr10" d="M193.050000,240.720000L191.538000,240.720000L191.538000,223.848000L193.050000,223.848000Z" transform="matrix(1 0 0 1 10.55200000000002 18.97864700000000)" fill="rgb(152,162,174)" stroke="none" stroke-width="1"/><path id="em1glxjw33nr11" d="M199.710000,226.340000L199.710000,240.716000L198.246000,240.716000L198.246000,223.844000L199.830000,223.844000L208.206000,238.148000L208.206000,223.844000L209.670000,223.844000L209.670000,240.716000L208.206000,240.716000Z" transform="matrix(1 0 0 1 10.55200000000002 18.97864700000000)" fill="rgb(152,162,174)" stroke="none" stroke-width="1"/><path id="em1glxjw33nr12" d="M214.890000,223.850000L224.202000,223.850000L224.202000,225.242000L216.402000,225.242000L216.402000,231.242000L222.498000,231.242000L222.498000,232.634000L216.402000,232.634000L216.402000,239.330000L224.442000,239.330000L224.442000,240.722000L214.890000,240.722000Z" transform="matrix(1 0 0 1 10.55200000000002 18.97864700000000)" fill="rgb(152,162,174)" stroke="none" stroke-width="1"/><path id="em1glxjw33nr13" d="M238.980000,240.720000L237.228000,240.720000L233.100000,233.784000L229.692000,233.784000L229.692000,240.720000L228.204000,240.720000L228.204000,223.848000L232.644000,223.848000Q234.156000,223.848000,235.164000,224.280000Q236.196000,224.712000,236.820000,225.432000Q237.444000,226.128000,237.708000,227.016000Q237.996000,227.880000,237.996000,228.768000Q237.996000,229.704000,237.732000,230.472000Q237.468000,231.240000,237.012000,231.816000Q236.556000,232.392000,235.932000,232.800000Q235.332000,233.208000,234.660000,233.448000ZM236.508000,228.840000Q236.508000,227.160000,235.548000,226.176000Q234.612000,225.192000,232.476000,225.192000L229.692000,225.192000L229.692000,232.464000L232.572000,232.464000Q234.612000,232.464000,235.548000,231.480000Q236.508000,230.496000,236.508000,228.840000Z" transform="matrix(1 0 0 1 10.55200000000002 18.97864700000000)" fill="rgb(152,162,174)" stroke="none" stroke-width="1"/></g><g id="em1glxjw33nr14"><path id="em1glxjw33nr15" d="M242.420000,222.720000L244.556000,222.720000L244.556000,240.720000L242.420000,240.720000Z" transform="matrix(1 0 0 1 10.55200000000002 18.97864700000000)" fill="rgb(0,201,255)" stroke="none" stroke-width="1"/><path id="em1glxjw33nr16" d="M255.970000,235.130000Q255.946000,235.130000,255.658000,235.082000Q255.370000,235.034000,254.938000,235.010000Q254.506000,234.962000,254.002000,234.938000Q253.498000,234.890000,253.066000,234.890000Q252.298000,234.890000,251.746000,235.082000Q251.218000,235.274000,250.882000,235.610000Q250.546000,235.922000,250.378000,236.354000Q250.234000,236.786000,250.234000,237.290000Q250.234000,238.322000,250.906000,238.826000Q251.602000,239.330000,252.706000,239.330000Q253.306000,239.330000,253.882000,239.138000Q254.458000,238.946000,254.914000,238.610000Q255.394000,238.250000,255.682000,237.794000Q255.970000,237.314000,255.970000,236.738000ZM256.114000,240.722000L256.018000,239.378000Q255.466000,240.146000,254.410000,240.602000Q253.354000,241.034000,252.226000,241.034000Q251.506000,241.034000,250.786000,240.842000Q250.066000,240.650000,249.490000,240.218000Q248.914000,239.786000,248.530000,239.066000Q248.170000,238.346000,248.170000,237.290000Q248.170000,235.442000,249.370000,234.338000Q250.570000,233.234000,252.970000,233.234000Q253.354000,233.234000,253.834000,233.258000Q254.314000,233.282000,254.746000,233.330000Q255.178000,233.354000,255.514000,233.402000Q255.850000,233.426000,255.970000,233.450000L255.970000,232.706000Q255.970000,231.386000,255.178000,230.810000Q254.410000,230.234000,252.970000,230.234000Q251.674000,230.234000,250.762000,230.522000Q249.874000,230.810000,249.466000,231.050000L248.818000,229.538000Q249.034000,229.394000,249.418000,229.202000Q249.802000,229.010000,250.354000,228.842000Q250.930000,228.650000,251.650000,228.530000Q252.394000,228.410000,253.306000,228.410000Q255.490000,228.410000,256.762000,229.490000Q258.034000,230.546000,258.034000,232.586000L258.034000,240.722000Z" transform="matrix(1 0 0 1 10.55200000000002 18.97864700000000)" fill="rgb(0,201,255)" stroke="none" stroke-width="1"/><path id="em1glxjw33nr17" d="M262.190000,222.720000L264.326000,222.720000L264.326000,230.208000Q264.422000,229.992000,264.686000,229.704000Q264.974000,229.392000,265.430000,229.104000Q265.886000,228.816000,266.510000,228.624000Q267.134000,228.408000,267.950000,228.408000Q269.270000,228.408000,270.254000,228.888000Q271.238000,229.368000,271.886000,230.208000Q272.534000,231.048000,272.846000,232.176000Q273.158000,233.280000,273.158000,234.576000Q273.158000,236.352000,272.678000,237.576000Q272.198000,238.776000,271.430000,239.520000Q270.662000,240.264000,269.678000,240.600000Q268.718000,240.912000,267.734000,240.912000Q267.014000,240.912000,266.438000,240.768000Q265.886000,240.648000,265.454000,240.456000Q265.022000,240.264000,264.710000,240.048000Q264.422000,239.832000,264.254000,239.640000L264.158000,240.720000L262.190000,240.720000ZM267.446000,239.064000Q269.054000,239.064000,269.990000,238.008000Q270.950000,236.928000,270.950000,234.576000Q270.950000,233.664000,270.758000,232.896000Q270.566000,232.104000,270.158000,231.552000Q269.750000,230.976000,269.126000,230.664000Q268.526000,230.352000,267.686000,230.352000Q266.030000,230.352000,265.166000,231.504000Q264.302000,232.656000,264.302000,235.056000L264.302000,237.672000Q264.638000,238.128000,265.430000,238.608000Q266.246000,239.064000,267.446000,239.064000Z" transform="matrix(1 0 0 1 10.55200000000002 18.97864700000000)" fill="rgb(0,201,255)" stroke="none" stroke-width="1"/></g></g></g><g id="em1glxjw33nr18" transform="matrix(1.27707402803300 0 0 1.27707402803300 -135.85348004729036 -121.99491568571256)"><g id="em1glxjw33nr19" transform="matrix(1 0 0 1 0.07761382500030 0.06641805000012)"><g id="em1glxjw33nr20"><path id="em1glxjw33nr21" d="M197.090000,165.860000C197.090000,166.332854,196.904804,166.786342,196.575152,167.120701C196.245501,167.455059,195.798398,167.642900,195.332200,167.642900C194.866002,167.642900,194.418899,167.455059,194.089248,167.120701C193.759596,166.786342,193.574400,166.332854,193.574400,165.860000C193.574400,165.387146,193.759596,164.933658,194.089248,164.599299C194.418899,164.264941,194.866002,164.077100,195.332200,164.077100C195.798398,164.077100,196.245501,164.264941,196.575152,164.599299C196.904804,164.933658,197.090000,165.387146,197.090000,165.860000" transform="matrix(1.73710677991851 0 0 1.65618996389279 -133.42868829055482 -108.83566781176552)" fill="none" stroke="rgb(0,201,255)" stroke-width="0.800000"/><path id="em1glxjw33nr22" d="M189.620000,161.660000C189.620000,163.125211,188.384843,164.313000,186.861200,164.313000C185.337557,164.313000,184.102400,163.125211,184.102400,161.660000C184.102400,160.194789,185.337557,159.007000,186.861200,159.007000C188.384843,159.007000,189.620000,160.194789,189.620000,161.660000" transform="matrix(1 0 0 1 10.55200000000002 0)" fill="none" stroke="rgb(0,201,255)" stroke-width="0.800000"/><path id="em1glxjw33nr23" d="M196.490000,152.410000C196.490000,153.460523,196.057584,154.468018,195.287878,155.210850C194.518173,155.953682,193.474228,156.371000,192.385700,156.371000C191.297172,156.371000,190.253227,155.953682,189.483522,155.210850C188.713816,154.468018,188.281400,153.460523,188.281400,152.410000C188.281400,151.359477,188.713816,150.351982,189.483522,149.609150C190.253227,148.866318,191.297172,148.449000,192.385700,148.449000C193.474228,148.449000,194.518173,148.866318,195.287878,149.609150C196.057584,150.351982,196.490000,151.359477,196.490000,152.410000" transform="matrix(1 0 0 1 10.55200000000002 0)" fill="none" stroke="rgb(0,201,255)" stroke-width="0.800000"/></g><path id="em1glxjw33nr24" d="M184.690000,168.960000C184.185000,169.173000,183.162000,169.812000,182.417000,170.380000C180.987000,171.471000,179.261000,171.742000,177.109000,171.214000C175.556000,170.833000,175.446000,171.282000,176.519000,173.615000C183.150000,188.035000,203.367000,188.511000,210.399000,174.414000C211.978000,171.249000,211.832000,170.694000,209.581000,171.316000C207.681000,171.840000,206.401000,171.543000,204.609000,170.159000C202.173000,168.278000,198.913000,168.276000,197.213000,170.155000C195.511000,172.036000,191.852000,171.948000,189.736000,169.977000C188.537000,168.859000,186.097000,168.368000,184.690000,168.960000" transform="matrix(1 0 0 1 10.55200000000002 0)" fill="rgb(0,201,255)" stroke="none" stroke-width="1"/></g><path id="em1glxjw33nr25" d="M183.880000,108.030000C182.975000,108.336000,180.383000,109.681000,178.119000,111.020000C174.266000,113.298000,167.106000,117.405000,163.002000,119.692000C154.092000,124.657000,150.780000,126.932000,149.402000,129.032000L148.002000,131.167000L148.002000,179.167000L149.497000,181.401000C150.478000,182.867000,151.646000,184.005000,152.897000,184.712000C153.945000,185.305000,155.072000,185.961000,155.402000,186.169000C156.829000,187.070000,162.284000,190.167000,162.443000,190.167000C162.539000,190.167000,163.379000,190.657000,164.310000,191.257000C165.241000,191.856000,166.378000,192.550000,166.837000,192.800000C171.955000,195.575000,173.293000,196.343000,173.833000,196.815000C174.181000,197.119000,174.573000,197.367000,174.706000,197.367000C174.918000,197.367000,184.217000,202.726000,185.802000,203.760000C190.866000,207.068000,195.086000,207.316000,200.002000,204.597000C201.762000,203.623000,203.562000,202.628000,204.002000,202.386000C204.442000,202.144000,205.573000,201.450000,206.515000,200.844000C207.457000,200.237000,208.987000,199.349000,209.915000,198.870000C210.843000,198.391000,213.172000,197.047000,215.090000,195.883000C217.008000,194.719000,218.661000,193.767000,218.762000,193.767000C218.864000,193.767000,221.614000,192.191000,224.874000,190.264000C228.135000,188.337000,231.446000,186.423000,232.233000,186.010000C235.260000,184.422000,236.849000,183.058000,238.102000,180.969000L239.402000,178.802000L239.398000,155.185000L239.394000,131.567000L238.210000,129.501000C237.558000,128.365000,236.345000,126.960000,235.513000,126.380000C233.718000,125.126000,223.946000,119.429000,218.402000,116.404000C217.962000,116.163000,217.332000,115.762000,217.002000,115.512000C216.672000,115.261000,215.502000,114.577000,214.402000,113.990000C213.302000,113.404000,212.049000,112.709000,211.617000,112.446000C202.831000,107.089000,200.603000,106.557000,198.619000,109.343000C197.827000,110.455000,197.802000,111.012000,197.802000,127.549000L197.802000,144.608000L199.302000,145.205000C203.837000,147.012000,204.578000,147.414000,207.187000,149.483000C209.492000,151.312000,214.000800,157.840700,214.000800,159.044700C214.000800,159.338700,213.654000,158.593970,213.963000,159.081000C216.050000,162.378000,215.532000,170.454000,212.910000,175.496000C201.150000,198.109000,167.417000,185.996000,172.764000,161.079000C174.197000,154.401000,182.896000,145.510000,187.890000,145.367000C189.849000,145.310900,189.802000,144.583000,189.802000,127.458000C189.802000,110.441000,189.769000,110.106000,187.943000,108.522000C186.824000,107.552000,185.697000,107.416000,183.880000,108.030000M185.457000,123.404000C185.469000,129.214000,185.461000,135.695000,185.440000,137.806000L185.402000,141.645000L182.424000,143.117000C158.291000,155.044000,166.727000,191.491000,193.602000,191.407000C220.979000,191.322000,229.072000,155.307000,204.515000,142.842000L202.002000,141.567000L202.002000,112.367000L202.981000,112.476000C203.519000,112.536000,204.239000,112.826000,204.581000,113.120000C204.922000,113.413000,206.436000,114.323000,207.945000,115.141000C209.453000,115.959000,211.841000,117.334000,213.252000,118.197000C214.662000,119.061000,215.887000,119.767000,215.975000,119.767000C216.231000,119.767000,228.987000,127.194000,231.574000,128.849000C235.811000,131.561000,235.587000,130.140000,235.696000,154.967000L235.791000,176.367000L234.866000,178.167000C233.953000,179.942000,232.343000,181.304000,229.202000,182.956000C227.541000,183.829000,226.700000,184.321000,225.004000,185.410000C224.453000,185.764000,222.922000,186.649000,221.602000,187.376000C217.875000,189.429000,217.201000,189.816000,210.802000,193.571000C207.502000,195.508000,204.082000,197.480000,203.202000,197.953000C202.322000,198.426000,200.144000,199.658000,198.363000,200.690000C193.439000,203.543000,193.350000,203.521000,182.003000,196.684000C181.563000,196.419000,180.769000,196.007000,180.239000,195.770000C179.710000,195.533000,178.486000,194.805000,177.519000,194.153000C176.553000,193.501000,175.626000,192.967000,175.460000,192.967000C175.294000,192.967000,174.268000,192.398000,173.180000,191.702000C171.072000,190.353000,163.795000,186.167000,163.558000,186.167000C163.481000,186.167000,162.465000,185.582000,161.300000,184.867000C160.135000,184.152000,158.827000,183.349000,158.392000,183.082000C157.958000,182.815000,156.832000,182.196000,155.891000,181.706000C154.950000,181.216000,153.690000,180.174000,153.091000,179.391000L152.002000,177.967000L152.002000,132.347000L152.912000,131.191000C153.756000,130.118000,158.031000,127.004000,158.695000,126.978000C158.856000,126.972000,160.164000,126.247000,161.602000,125.367000C163.040000,124.487000,164.310000,123.767000,164.425000,123.767000C164.540000,123.767000,165.122000,123.432000,165.718000,123.023000C166.848000,122.248000,176.531000,116.640000,180.002000,114.752000C181.102000,114.153000,182.272000,113.435000,182.602000,113.156000C183.346000,112.528000,184.696000,112.215000,185.119000,112.573000C185.293000,112.720000,185.445000,117.594000,185.457000,123.404000" transform="matrix(1 0 0 1 10.55200000000002 0)" fill="rgb(152,162,174)" fill-rule="evenodd" stroke="none" stroke-width="1"/></g><script><![CDATA[!function(t,n){"object"==typeof exports&&"undefined"!=typeof module?module.exports=n():"function"==typeof define&&define.amd?define(n):(t="undefined"!=typeof globalThis?globalThis:t||self).__SVGATOR_PLAYER__=n()}(this,(function(){"use strict";function t(n){return(t="function"==typeof Symbol&&"symbol"==typeof Symbol.iterator?function(t){return typeof t}:function(t){return t&&"function"==typeof Symbol&&t.constructor===Symbol&&t!==Symbol.prototype?"symbol":typeof t})(n)}function n(t,n){if(!(t instanceof n))throw new TypeError("Cannot call a class as a function")}function r(t,n){for(var r=0;r<n.length;r++){var e=n[r];e.enumerable=e.enumerable||!1,e.configurable=!0,"value"in e&&(e.writable=!0),Object.defineProperty(t,e.key,e)}}function e(t,n,e){return n&&r(t.prototype,n),e&&r(t,e),t}function i(t){return(i=Object.setPrototypeOf?Object.getPrototypeOf:function(t){return t.__proto__||Object.getPrototypeOf(t)})(t)}function o(t,n){return(o=Object.setPrototypeOf||function(t,n){return t.__proto__=n,t})(t,n)}function u(t,n){return!n||"object"!=typeof n&&"function"!=typeof n?function(t){if(void 0===t)throw new ReferenceError("this hasn't been initialised - super() hasn't been called");return t}(t):n}function a(t){var n=function(){if("undefined"==typeof Reflect||!Reflect.construct)return!1;if(Reflect.construct.sham)return!1;if("function"==typeof Proxy)return!0;try{return Boolean.prototype.valueOf.call(Reflect.construct(Boolean,[],(function(){}))),!0}catch(t){return!1}}();return function(){var r,e=i(t);if(n){var o=i(this).constructor;r=Reflect.construct(e,arguments,o)}else r=e.apply(this,arguments);return u(this,r)}}function l(t,n,r){return(l="undefined"!=typeof Reflect&&Reflect.get?Reflect.get:function(t,n,r){var e=function(t,n){for(;!Object.prototype.hasOwnProperty.call(t,n)&&null!==(t=i(t)););return t}(t,n);if(e){var o=Object.getOwnPropertyDescriptor(e,n);return o.get?o.get.call(r):o.value}})(t,n,r||t)}var f=Math.abs;function s(t){return t}function c(t,n,r){var e=1-r;return 3*r*e*(t*e+n*r)+r*r*r}function h(){var t=arguments.length>0&&void 0!==arguments[0]?arguments[0]:0,n=arguments.length>1&&void 0!==arguments[1]?arguments[1]:0,r=arguments.length>2&&void 0!==arguments[2]?arguments[2]:1,e=arguments.length>3&&void 0!==arguments[3]?arguments[3]:1;return t<0||t>1||r<0||r>1?null:f(t-n)<=1e-5&&f(r-e)<=1e-5?s:function(i){if(i<=0)return t>0?i*n/t:0===n&&r>0?i*e/r:0;if(i>=1)return r<1?1+(i-1)*(e-1)/(r-1):1===r&&t<1?1+(i-1)*(n-1)/(t-1):1;for(var o,u=0,a=1;u<a;){var l=c(t,r,o=(u+a)/2);if(f(i-l)<1e-5)break;l<i?u=o:a=o}return c(n,e,o)}}function v(){return 1}function y(t){return 1===t?1:0}function d(){var t=arguments.length>0&&void 0!==arguments[0]?arguments[0]:1,n=arguments.length>1&&void 0!==arguments[1]?arguments[1]:0;if(1===t){if(0===n)return y;if(1===n)return v}var r=1/t;return function(t){return t>=1?1:(t+=n*r)-t%r}}function g(t){var n=arguments.length>1&&void 0!==arguments[1]?arguments[1]:2;if(Number.isInteger(t))return t;var r=Math.pow(10,n);return Math.round(t*r)/r}var p=Math.PI/180;function m(t,n,r){return t>=.5?r:n}function b(t,n,r){return 0===t||n===r?n:t*(r-n)+n}function w(t,n,r){var e=b(t,n,r);return e<=0?0:e}function x(t,n,r){return 0===t?n:1===t?r:{x:b(t,n.x,r.x),y:b(t,n.y,r.y)}}function k(t,n,r){var e=function(t,n,r){return Math.round(b(t,n,r))}(t,n,r);return e<=0?0:e>=255?255:e}function A(t,n,r){return 0===t?n:1===t?r:{r:k(t,n.r,r.r),g:k(t,n.g,r.g),b:k(t,n.b,r.b),a:b(t,null==n.a?1:n.a,null==r.a?1:r.a)}}function _(t,n,r){if(0===t)return n;if(1===t)return r;var e=n.length;if(e!==r.length)return m(t,n,r);for(var i=[],o=0;o<e;o++)i.push(A(t,n[o],r[o]));return i}function S(t,n){for(var r=[],e=0;e<t;e++)r.push(n);return r}function O(t,n){if(--n<=0)return t;var r=(t=Object.assign([],t)).length;do{for(var e=0;e<r;e++)t.push(t[e])}while(--n>0);return t}var M,j=function(){function t(r){n(this,t),this.list=r,this.length=r.length}return e(t,[{key:"setAttribute",value:function(t,n){for(var r=this.list,e=0;e<this.length;e++)r[e].setAttribute(t,n)}},{key:"removeAttribute",value:function(t){for(var n=this.list,r=0;r<this.length;r++)n[r].removeAttribute(t)}},{key:"style",value:function(t,n){for(var r=this.list,e=0;e<this.length;e++)r[e].style[t]=n}}]),t}(),F=/-./g,P=function(t,n){return n.toUpperCase()};function B(t){return"function"==typeof t?t:m}function I(t){return t?"function"==typeof t?t:Array.isArray(t)?function(t){var n=arguments.length>1&&void 0!==arguments[1]?arguments[1]:s;if(!Array.isArray(t))return n;switch(t.length){case 1:return d(t[0])||n;case 2:return d(t[0],t[1])||n;case 4:return h(t[0],t[1],t[2],t[3])||n}return n}(t,null):function(t,n){var r=arguments.length>2&&void 0!==arguments[2]?arguments[2]:s;switch(t){case"linear":return s;case"steps":return d(n.steps||1,n.jump||0)||r;case"bezier":case"cubic-bezier":return h(n.x1||0,n.y1||0,n.x2||0,n.y2||0)||r}return r}(t.type,t.value,null):null}function R(t,n,r){var e=arguments.length>3&&void 0!==arguments[3]&&arguments[3],i=n.length-1;if(t<=n[0].t)return e?[0,0,n[0].v]:n[0].v;if(t>=n[i].t)return e?[i,1,n[i].v]:n[i].v;var o,u=n[0],a=null;for(o=1;o<=i;o++){if(!(t>n[o].t)){a=n[o];break}u=n[o]}return null==a?e?[i,1,n[i].v]:n[i].v:u.t===a.t?e?[o,1,a.v]:a.v:(t=(t-u.t)/(a.t-u.t),u.e&&(t=u.e(t)),e?[o,t,r(t,u.v,a.v)]:r(t,u.v,a.v))}function q(t,n){var r=arguments.length>2&&void 0!==arguments[2]?arguments[2]:null;return t&&t.length?"function"!=typeof n?null:("function"!=typeof r&&(r=null),function(e){var i=R(e,t,n);return null!=i&&r&&(i=r(i)),i}):null}function E(t,n){return t.t-n.t}function T(n,r,e,i,o){var u,a="@"===e[0],l="#"===e[0],f=M[e],s=m;switch(a?(u=e.substr(1),e=u.replace(F,P)):l&&(e=e.substr(1)),t(f)){case"function":if(s=f(i,o,R,I,e,a,r,n),l)return s;break;case"string":s=q(i,B(f));break;case"object":if((s=q(i,B(f.i),f.f))&&"function"==typeof f.u)return f.u(r,s,e,a,n)}return s?function(t,n,r){var e=arguments.length>3&&void 0!==arguments[3]&&arguments[3];if(e)return t instanceof j?function(e){return t.style(n,r(e))}:function(e){return t.style[n]=r(e)};if(Array.isArray(n)){var i=n.length;return function(e){var o=r(e);if(null==o)for(var u=0;u<i;u++)t[u].removeAttribute(n);else for(var a=0;a<i;a++)t[a].setAttribute(n,o)}}return function(e){var i=r(e);null==i?t.removeAttribute(n):t.setAttribute(n,i)}}(r,e,s,a):null}function N(n,r,e,i){if(!i||"object"!==t(i))return null;var o=null,u=null;return Array.isArray(i)?u=function(t){if(!t||!t.length)return null;for(var n=0;n<t.length;n++)t[n].e&&(t[n].e=I(t[n].e));return t.sort(E)}(i):(u=i.keys,o=i.data||null),u?T(n,r,e,u,o):null}function C(t,n,r){if(!r)return null;var e=[];for(var i in r)if(r.hasOwnProperty(i)){var o=N(t,n,i,r[i]);o&&e.push(o)}return e.length?e:null}function z(t,n){if(!n.duration||n.duration<0)return null;var r=function(t,n){if(!n)return null;var r=[];if(Array.isArray(n))for(var e=n.length,i=0;i<e;i++){var o=n[i];if(2===o.length){var u=null;if("string"==typeof o[0])u=t.getElementById(o[0]);else if(Array.isArray(o[0])){u=[];for(var a=0;a<o[0].length;a++)if("string"==typeof o[0][a]){var l=t.getElementById(o[0][a]);l&&u.push(l)}u=u.length?1===u.length?u[0]:new j(u):null}if(u){var f=C(t,u,o[1]);f&&(r=r.concat(f))}}}else for(var s in n)if(n.hasOwnProperty(s)){var c=t.getElementById(s);if(c){var h=C(t,c,n[s]);h&&(r=r.concat(h))}}return r.length?r:null}(t,n.elements);return r?function(t,n){var r=arguments.length>2&&void 0!==arguments[2]?arguments[2]:1/0,e=arguments.length>3&&void 0!==arguments[3]?arguments[3]:1,i=arguments.length>4&&void 0!==arguments[4]&&arguments[4],o=arguments.length>5&&void 0!==arguments[5]?arguments[5]:1,u=t.length,a=e>0?n:0;i&&r%2==0&&(a=n-a);var l=null;return function(f,s){var c=f%n,h=1+(f-c)/n;s*=e,i&&h%2==0&&(s=-s);var v=!1;if(h>r)c=a,v=!0,-1===o&&(c=e>0?0:n);else if(s<0&&(c=n-c),c===l)return!1;l=c;for(var y=0;y<u;y++)t[y](c);return v}}(r,n.duration,n.iterations||1/0,n.direction||1,!!n.alternate,n.fill||1):null}var L=function(){function t(r,e){var i=arguments.length>2&&void 0!==arguments[2]?arguments[2]:{};n(this,t),this._id=0,this._running=!1,this._rollingBack=!1,this._animations=r,this.duration=e.duration,this.alternate=e.alternate,this.fill=e.fill,this.iterations=e.iterations,this.direction=i.direction||1,this.speed=i.speed||1,this.fps=i.fps||100,this.offset=i.offset||0,this.rollbackStartOffset=0}return e(t,[{key:"_rollback",value:function(){var t=this,n=1/0,r=null;this.rollbackStartOffset=this.offset,this._rollingBack||(this._rollingBack=!0,this._running=!0);this._id=window.requestAnimationFrame((function e(i){if(t._rollingBack){null==r&&(r=i);var o=i-r,u=t.rollbackStartOffset-o,a=Math.round(u*t.speed);if(a>t.duration&&n!=1/0){var l=!!t.alternate&&a/t.duration%2>1,f=a%t.duration;a=(f+=l?t.duration:0)||t.duration}var s=t.fps?1e3/t.fps:0,c=Math.max(0,a);if(c<n-s){t.offset=c,n=c;for(var h=t._animations,v=h.length,y=0;y<v;y++)h[y](c,t.direction)}var d=!1;if(t.iterations>0&&-1===t.fill){var g=t.iterations*t.duration,p=g==a;a=p?0:a,t.offset=p?0:t.offset,d=a>g}a>0&&t.offset>=a&&!d?t._id=window.requestAnimationFrame(e):t.stop()}}))}},{key:"_start",value:function(){var t=this,n=arguments.length>0&&void 0!==arguments[0]?arguments[0]:0,r=-1/0,e=null,i={},o=function o(u){t._running=!0,null==e&&(e=u);var a=Math.round((u-e+n)*t.speed),l=t.fps?1e3/t.fps:0;if(a>r+l&&!t._rollingBack){t.offset=a,r=a;for(var f=t._animations,s=f.length,c=0,h=0;h<s;h++)i[h]?c++:(i[h]=f[h](a,t.direction),i[h]&&c++);if(c===s)return void t._stop()}t._id=window.requestAnimationFrame(o)};this._id=window.requestAnimationFrame(o)}},{key:"_stop",value:function(){this._id&&window.cancelAnimationFrame(this._id),this._running=!1,this._rollingBack=!1}},{key:"play",value:function(){!this._rollingBack&&this._running||(this._rollingBack=!1,this.rollbackStartOffset>this.duration&&(this.offset=this.rollbackStartOffset-(this.rollbackStartOffset-this.offset)%this.duration,this.rollbackStartOffset=0),this._start(this.offset))}},{key:"stop",value:function(){this._stop(),this.offset=0,this.rollbackStartOffset=0;var t=this.direction,n=this._animations;window.requestAnimationFrame((function(){for(var r=0;r<n.length;r++)n[r](0,t)}))}},{key:"reachedToEnd",value:function(){return this.iterations>0&&this.offset>=this.iterations*this.duration}},{key:"restart",value:function(){this._stop(),this.offset=0,this._start()}},{key:"pause",value:function(){this._stop()}},{key:"reverse",value:function(){this.direction=-this.direction}}],[{key:"build",value:function(n,r){return(n=function(t,n){if(M=n,!t||!t.root||!Array.isArray(t.animations))return null;for(var r=document.getElementsByTagName("svg"),e=!1,i=0;i<r.length;i++)if(r[i].id===t.root&&!r[i].svgatorAnimation){(e=r[i]).svgatorAnimation=!0;break}if(!e)return null;var o=t.animations.map((function(t){return z(e,t)})).filter((function(t){return!!t}));return o.length?{element:e,animations:o,animationSettings:t.animationSettings,options:t.options||void 0}:null}(n,r))?{el:n.element,options:n.options||{},player:new t(n.animations,n.animationSettings,n.options)}:null}}]),t}();!function(){for(var t=0,n=["ms","moz","webkit","o"],r=0;r<n.length&&!window.requestAnimationFrame;++r)window.requestAnimationFrame=window[n[r]+"RequestAnimationFrame"],window.cancelAnimationFrame=window[n[r]+"CancelAnimationFrame"]||window[n[r]+"CancelRequestAnimationFrame"];window.requestAnimationFrame||(window.requestAnimationFrame=function(n){var r=Date.now(),e=Math.max(0,16-(r-t)),i=window.setTimeout((function(){n(r+e)}),e);return t=r+e,i},window.cancelAnimationFrame=window.clearTimeout)}();var D=/\.0+$/g;function Q(t){return Number.isInteger(t)?t+"":t.toFixed(6).replace(D,"")}function U(t){var n=arguments.length>1&&void 0!==arguments[1]?arguments[1]:" ";return t&&t.length?t.map(Q).join(n):""}function V(t){return t?null==t.a||t.a>=1?"rgb("+t.r+","+t.g+","+t.b+")":"rgba("+t.r+","+t.g+","+t.b+","+t.a+")":"transparent"}var $={f:null,i:function(t,n,r){return 0===t?n:1===t?r:{x:w(t,n.x,r.x),y:w(t,n.y,r.y)}},u:function(t,n){return function(r){var e=n(r);t.setAttribute("rx",Q(e.x)),t.setAttribute("ry",Q(e.y))}}},G={f:null,i:function(t,n,r){return 0===t?n:1===t?r:{width:w(t,n.width,r.width),height:w(t,n.height,r.height)}},u:function(t,n){return function(r){var e=n(r);t.setAttribute("width",Q(e.width)),t.setAttribute("height",Q(e.height))}}},H=Math.sin,Y=Math.cos,Z=Math.acos,J=Math.asin,K=Math.tan,W=Math.atan2,X=Math.PI/180,tt=180/Math.PI,nt=Math.sqrt,rt=function(){function t(){var r=arguments.length>0&&void 0!==arguments[0]?arguments[0]:1,e=arguments.length>1&&void 0!==arguments[1]?arguments[1]:0,i=arguments.length>2&&void 0!==arguments[2]?arguments[2]:0,o=arguments.length>3&&void 0!==arguments[3]?arguments[3]:1,u=arguments.length>4&&void 0!==arguments[4]?arguments[4]:0,a=arguments.length>5&&void 0!==arguments[5]?arguments[5]:0;n(this,t),this.m=[r,e,i,o,u,a],this.i=null,this.w=null,this.s=null}return e(t,[{key:"determinant",get:function(){var t=this.m;return t[0]*t[3]-t[1]*t[2]}},{key:"isIdentity",get:function(){if(null===this.i){var t=this.m;this.i=1===t[0]&&0===t[1]&&0===t[2]&&1===t[3]&&0===t[4]&&0===t[5]}return this.i}},{key:"point",value:function(t,n){var r=this.m;return{x:r[0]*t+r[2]*n+r[4],y:r[1]*t+r[3]*n+r[5]}}},{key:"translateSelf",value:function(){var t=arguments.length>0&&void 0!==arguments[0]?arguments[0]:0,n=arguments.length>1&&void 0!==arguments[1]?arguments[1]:0;if(!t&&!n)return this;var r=this.m;return r[4]+=r[0]*t+r[2]*n,r[5]+=r[1]*t+r[3]*n,this.w=this.s=this.i=null,this}},{key:"rotateSelf",value:function(){var t=arguments.length>0&&void 0!==arguments[0]?arguments[0]:0;if(t%=360){var n=H(t*=X),r=Y(t),e=this.m,i=e[0],o=e[1];e[0]=i*r+e[2]*n,e[1]=o*r+e[3]*n,e[2]=e[2]*r-i*n,e[3]=e[3]*r-o*n,this.w=this.s=this.i=null}return this}},{key:"scaleSelf",value:function(){var t=arguments.length>0&&void 0!==arguments[0]?arguments[0]:1,n=arguments.length>1&&void 0!==arguments[1]?arguments[1]:1;if(1!==t||1!==n){var r=this.m;r[0]*=t,r[1]*=t,r[2]*=n,r[3]*=n,this.w=this.s=this.i=null}return this}},{key:"skewSelf",value:function(t,n){if(n%=360,(t%=360)||n){var r=this.m,e=r[0],i=r[1],o=r[2],u=r[3];t&&(t=K(t*X),r[2]+=e*t,r[3]+=i*t),n&&(n=K(n*X),r[0]+=o*n,r[1]+=u*n),this.w=this.s=this.i=null}return this}},{key:"resetSelf",value:function(){var t=arguments.length>0&&void 0!==arguments[0]?arguments[0]:1,n=arguments.length>1&&void 0!==arguments[1]?arguments[1]:0,r=arguments.length>2&&void 0!==arguments[2]?arguments[2]:0,e=arguments.length>3&&void 0!==arguments[3]?arguments[3]:1,i=arguments.length>4&&void 0!==arguments[4]?arguments[4]:0,o=arguments.length>5&&void 0!==arguments[5]?arguments[5]:0,u=this.m;return u[0]=t,u[1]=n,u[2]=r,u[3]=e,u[4]=i,u[5]=o,this.w=this.s=this.i=null,this}},{key:"recomposeSelf",value:function(){var t=arguments.length>0&&void 0!==arguments[0]?arguments[0]:null,n=arguments.length>1&&void 0!==arguments[1]?arguments[1]:null,r=arguments.length>2&&void 0!==arguments[2]?arguments[2]:null,e=arguments.length>3&&void 0!==arguments[3]?arguments[3]:null,i=arguments.length>4&&void 0!==arguments[4]?arguments[4]:null;return this.isIdentity||this.resetSelf(),t&&(t.x||t.y)&&this.translateSelf(t.x,t.y),n&&this.rotateSelf(n),r&&(r.x&&this.skewSelf(r.x,0),r.y&&this.skewSelf(0,r.y)),!e||1===e.x&&1===e.y||this.scaleSelf(e.x,e.y),i&&(i.x||i.y)&&this.translateSelf(i.x,i.y),this}},{key:"decompose",value:function(){var t=arguments.length>0&&void 0!==arguments[0]?arguments[0]:0,n=arguments.length>1&&void 0!==arguments[1]?arguments[1]:0,r=this.m,e=r[0]*r[0]+r[1]*r[1],i=[[r[0],r[1]],[r[2],r[3}}-,o=nt(e);if(0===o)return{origin:{x:r[4],y:r[5]},translate:{x:t,y:n},scale:{x:0,y:0},skew:{x:0,y:0},rotate:0};i[0][0]/=o,i[0][1]/=o;var u=r[0]*r[3]-r[1]*r[2]<0;u&&(o=-o);var a=i[0][0]*i[1][0]+i[0][1]*i[1][1];i[1][0]-=i[0][0]*a,i[1][1]-=i[0][1]*a;var l=nt(i[1][0]*i[1][0]+i[1][1]*i[1][1]);if(0===l)return{origin:{x:r[4],y:r[5]},translate:{x:t,y:n},scale:{x:o,y:0},skew:{x:0,y:0},rotate:0};i[1][0]/=l,i[1][1]/=l,a/=l;var f=0;return i[1][1]<0?(f=Z(i[1][1])*tt,i[0][1]<0&&(f=360-f)):f=J(i[0][1])*tt,u&&(f=-f),a=W(a,nt(i[0][0]*i[0][0]+i[0][1]*i[0][1]))*tt,u&&(a=-a),{origin:{x:r[4],y:r[5]},translate:{x:t,y:n},scale:{x:o,y:l},skew:{x:a,y:0},rotate:f}}},{key:"toString",value:function(){return null===this.s&&(this.s="matrix("+this.m.map(it).join(" ")+")"),this.s}}]),t}(),et=/\.0+$/;function it(t){return Number.isInteger(t)?t:t.toFixed(14).replace(et,"")}function ot(t,n,r){return t+(n-t)*r}function ut(t,n,r){var e=arguments.length>3&&void 0!==arguments[3]&&arguments[3],i={x:ot(t.x,n.x,r),y:ot(t.y,n.y,r)};return e&&(i.a=at(t,n)),i}function at(t,n){return Math.atan2(n.y-t.y,n.x-t.x)}Object.freeze({M:2,L:2,Z:0,H:1,V:1,C:6,Q:4,T:2,S:4,A:7});var lt={},ft=null;function st(n){var r=function(){if(ft)return ft;if("object"!==("undefined"==typeof document?"undefined":t(document)))return{};var n=document.createElementNS("http://www.w3.org/2000/svg","svg");return n.style.position="absolute",n.style.opacity="0.01",n.style.zIndex="-9999",n.style.left="-9999px",n.style.width="1px",n.style.height="1px",ft={svg:n}}().svg;if(!r)return function(t){return null};var e=document.createElementNS(r.namespaceURI,"path");e.setAttributeNS(null,"d",n),e.setAttributeNS(null,"fill","none"),e.setAttributeNS(null,"stroke","none"),r.appendChild(e);var i=e.getTotalLength();return function(t){var n=e.getPointAtLength(i*t);return{x:n.x,y:n.y}}}function ct(t){return lt[t]?lt[t]:lt[t]=st(t)}function ht(t,n,r,e){if(!t||!e)return!1;var i=["M",t.x,t.y];if(n&&r&&(i.push("C"),i.push(n.x),i.push(n.y),i.push(r.x),i.push(r.y)),n?!r:r){var o=n||r;i.push("Q"),i.push(o.x),i.push(o.y)}return n||r||i.push("L"),i.push(e.x),i.push(e.y),i.join(" ")}function vt(t,n,r,e){var i=arguments.length>4&&void 0!==arguments[4]?arguments[4]:1,o=ht(t,n,r,e),u=ct(o);try{return u(i)}catch(t){return null}}function yt(t,n,r,e){var i=1-e;return i*i*t+2*i*e*n+e*e*r}function dt(t,n,r,e){return 2*(1-e)*(n-t)+2*e*(r-n)}function gt(t,n,r,e){var i=arguments.length>4&&void 0!==arguments[4]&&arguments[4],o=vt(t,n,null,r,e);return o||(o={x:yt(t.x,n.x,r.x,e),y:yt(t.y,n.y,r.y,e)}),i&&(o.a=pt(t,n,r,e)),o}function pt(t,n,r,e){return Math.atan2(dt(t.y,n.y,r.y,e),dt(t.x,n.x,r.x,e))}function mt(t,n,r,e,i){var o=i*i;return i*o*(e-t+3*(n-r))+3*o*(t+r-2*n)+3*i*(n-t)+t}function bt(t,n,r,e,i){var o=1-i;return 3*(o*o*(n-t)+2*o*i*(r-n)+i*i*(e-r))}function wt(t,n,r,e,i){var o=arguments.length>5&&void 0!==arguments[5]&&arguments[5],u=vt(t,n,r,e,i);return u||(u={x:mt(t.x,n.x,r.x,e.x,i),y:mt(t.y,n.y,r.y,e.y,i)}),o&&(u.a=xt(t,n,r,e,i)),u}function xt(t,n,r,e,i){return Math.atan2(bt(t.y,n.y,r.y,e.y,i),bt(t.x,n.x,r.x,e.x,i))}function kt(t,n,r){var e=arguments.length>3&&void 0!==arguments[3]&&arguments[3];if(_t(n)){if(St(r))return gt(n,r.start,r,t,e)}else if(_t(r)){if(n.end)return gt(n,n.end,r,t,e)}else{if(n.end)return r.start?wt(n,n.end,r.start,r,t,e):gt(n,n.end,r,t,e);if(r.start)return gt(n,r.start,r,t,e)}return ut(n,r,t,e)}function At(t,n,r){var e=kt(t,n,r,!0);return e.a=function(t){var n=arguments.length>1&&void 0!==arguments[1]&&arguments[1];return n?t+Math.PI:t}(e.a)/p,e}function _t(t){return!t.type||"corner"===t.type}function St(t){return null!=t.start&&!_t(t)}var Ot=new rt;var Mt={f:Q,i:b},jt={f:Q,i:function(t,n,r){var e=b(t,n,r);return e<=0?0:e>=1?1:e}};function Ft(t,n,r,e,i,o,u,a){return n=function(t,n,r){for(var e,i,o,u=t.length-1,a={},l=0;l<=u;l++)(e=t[l]).e&&(e.e=n(e.e)),e.v&&"g"===(i=e.v).t&&i.r&&(o=r.getElementById(i.r))&&(a[i.r]=o.querySelectorAll("stop"));return a}(t,e,a),function(e){var i,o=r(e,t,Pt);return o?"c"===o.t?V(o.v):"g"===o.t?(n[o.r]&&function(t,n){for(var r=0,e=t.length;r<e;r++)t[r].setAttribute("stop-color",V(n[r]))}(n[o.r],o.v),(i=o.r)?"url(#"+i+")":"none"):"none":"none"}}function Pt(t,n,r){if(0===t)return n;if(1===t)return r;if(n&&r){var e=n.t;if(e===r.t)switch(n.t){case"c":return{t:e,v:A(t,n.v,r.v)};case"g":if(n.r===r.r)return{t:e,v:_(t,n.v,r.v),r:n.r}}}return m(t,n,r)}var Bt={fill:Ft,"fill-opacity":jt,stroke:Ft,"stroke-opacity":jt,"stroke-width":Mt,"stroke-dashoffset":{f:Q,i:b},"stroke-dasharray":{f:function(t){var n=arguments.length>1&&void 0!==arguments[1]?arguments[1]:" ";return t&&t.length>0&&(t=t.map((function(t){return Math.floor(1e4*t)/1e4}))),U(t,n)},i:function(t,n,r){var e,i,o,u=n.length,a=r.length;if(u!==a)if(0===u)n=S(u=a,0);else if(0===a)a=u,r=S(u,0);else{var l=(o=(e=u)*(i=a)/function(t,n){for(var r;n;)r=n,n=t%n,t=r;return t||1}(e,i))<0?-o:o;n=O(n,Math.floor(l/u)),r=O(r,Math.floor(l/a)),u=a=l}for(var f=[],s=0;s<u;s++)f.push(g(w(t,n[s],r[s]),6));return f}},opacity:jt,transform:function(n,r,e,i){if(!(n=function(n,r){if(!n||"object"!==t(n))return null;var e=!1;for(var i in n)n.hasOwnProperty(i)&&(n[i]&&n[i].length?(n[i].forEach((function(t){t.e&&(t.e=r(t.e))})),e=!0):delete n[i]);return e?n:null}(n,i)))return null;var o=function(t,i,o){var u=arguments.length>3&&void 0!==arguments[3]?arguments[3]:null;return n[t]?e(i,n[t],o):r&&r[t]?r[t]:u};return r&&r.a&&n.o?function(t){var r=e(t,n.o,At);return Ot.recomposeSelf(r,o("r",t,b,0)+r.a,o("k",t,x),o("s",t,x),o("t",t,x)).toString()}:function(t){return Ot.recomposeSelf(o("o",t,kt,null),o("r",t,b,0),o("k",t,x),o("s",t,x),o("t",t,x)).toString()}},r:Mt,"#size":G,"#radius":$,_:function(t,n){if(Array.isArray(t))for(var r=0;r<t.length;r++)this[t[r]]=n;else this[t]=n}};return function(t){!function(t,n){if("function"!=typeof n&&null!==n)throw new TypeError("Super expression must either be null or a function");t.prototype=Object.create(n&&n.prototype,{constructor:{value:t,writable:!0,configurable:!0}}),n&&o(t,n)}(u,t);var r=a(u);function u(){return n(this,u),r.apply(this,arguments)}return e(u,null,[{key:"build",value:function(t){var n=l(i(u),"build",this).call(this,t,Bt);n.el,n.options;var r=n.player;return function(t){t.play()}(r),r}}]),u}(L)}));
__SVGATOR_PLAYER__.build({"root":"em1glxjw33nr1","animations":[{"duration":1000,"direction":1,"iterations":0,"fill":1,"alternate":false,"elements":{"em1glxjw33nr21":{"transform":{"data":{"s":{"x":1.73710677991851,"y":1.6561899638927948},"t":{"x":-195.3321990966797,"y":-165.86000061035156}},"keys":{"o":[{"t":0,"v":{"x":205.8841990966797,"y":165.86000061035156,"type":"cusp","end":{"x":197.0742820966797,"y":167.99832961035156}}},{"t":500,"v":{"x":195.70575209667976,"y":158.84335593535172,"type":"cusp","start":{"x":195.70575209667976,"y":161.1699929353517},"end":{"x":195.5972382004564,"y":154.4171206894188}}},{"t":1000,"v":{"x":204.54330175667974,"y":147.11710793535227,"type":"cusp","start":{"x":207.48415908943667,"y":154.85351205871606}}}]}},"opacity":[{"t":0,"v":1},{"t":1000,"v":0.68}]},"em1glxjw33nr22":{"transform":{"data":{"t":{"x":-186.86119079589844,"y":-161.66000366210938}},"keys":{"o":[{"t":0,"v":{"x":197.41319079589846,"y":161.66000366210938,"type":"cusp","end":{"x":199.73948719236807,"y":153.1007289347672}}},{"t":500,"v":{"x":206.36751800000002,"y":150.296087,"type":"cusp","start":{"x":206.57782386456813,"y":157.96019671766337}}},{"t":1000,"v":{"x":204.96887673089844,"y":131.77698698710978,"type":"cusp","start":{"x":197.73394659546653,"y":137.76591870477316}}}],"s":[{"t":0,"v":{"x":1,"y":1}},{"t":300,"v":{"x":1.1772080231318327,"y":1.2305921714240704}},{"t":500,"v":{"x":1.3879623359485156,"y":1.4472455792070333}},{"t":1000,"v":{"x":0.890084021332726,"y":0.9901011123792877}}]}},"opacity":[{"t":0,"v":1},{"t":1000,"v":0.6}]},"em1glxjw33nr23":{"transform":{"data":{"t":{"x":-192.38571166992188,"y":-152.41000366210938}},"keys":{"o":[{"t":0,"v":{"x":202.9377116699219,"y":152.41000366210938,"type":"cusp","end":{"x":210.67631999443194,"y":150.14126927407847}}},{"t":500,"v":{"x":202.846,"y":130.576097,"type":"cusp","start":{"x":203.4207952486952,"y":132.80373729410377}}},{"t":1000,"v":{"x":204.54330999492188,"y":117.44364966211026,"type":"cusp","start":{"x":201.34426424361715,"y":117.33836895621396}}}],"s":[{"t":0,"v":{"x":1,"y":1}},{"t":100,"v":{"x":0.8338548534739333,"y":0.8061361464544163}},{"t":200,"v":{"x":0.751891456728619,"y":0.7281106099533703}},{"t":500,"v":{"x":0.5977396911736341,"y":0.6070396896985057}}]}},"opacity":[{"t":0,"v":1},{"t":1000,"v":0.06}]}}}],"options":{"start":"load","hover":"freeze","click":"freeze","scroll":25,"font":"embed","exportedIds":"unique","title":"containerlab_export_white_ink"},"animationSettings":{"duration":1000,"direction":1,"iterations":0,"fill":1,"alternate":false}})]]></script></svg>