<svg id="containerlab_export_white_ink" xmlns="http://www.w3.org/2000/svg" xmlns:xlink="http://www.w3.org/1999/xlink" viewBox="0 0 250 191.780000" shape-rendering="geometricPrecision" text-rendering="geometricPrecision" width="250" height="191.780000"><style><![CDATA[#containerlab_export_white_ink-small-bubble_to {animation: containerlab_export_white_ink-small-bubble_to__to 1000ms linear infinite normal forwards}@keyframes containerlab_export_white_ink-small-bubble_to__to { 0% {offset-distance: 0%} 50% {offset-distance: 50%} 100% {offset-distance: 100%} }#containerlab_export_white_ink-small-bubble {animation: containerlab_export_white_ink-small-bubble_c_o 1000ms linear infinite normal forwards}@keyframes containerlab_export_white_ink-small-bubble_c_o { 0% {opacity: 1} 100% {opacity: 0.680000} }#containerlab_export_white_ink-mid-bubble_to {animation: containerlab_export_white_ink-mid-bubble_to__to 1000ms linear infinite normal forwards}@keyframes containerlab_export_white_ink-mid-bubble_to__to { 0% {offset-distance: 0%} 50% {offset-distance: 50%} 100% {offset-distance: 100%} }#containerlab_export_white_ink-mid-bubble_ts {animation: containerlab_export_white_ink-mid-bubble_ts__ts 1000ms linear infinite normal forwards}@keyframes containerlab_export_white_ink-mid-bubble_ts__ts { 0% {transform: scale(1,1)} 30% {transform: scale(1.177208,1.230592)} 50% {transform: scale(1.387962,1.447246)} 100% {transform: scale(0.890084,0.990101)} }#containerlab_export_white_ink-mid-bubble {animation: containerlab_export_white_ink-mid-bubble_c_o 1000ms linear infinite normal forwards}@keyframes containerlab_export_white_ink-mid-bubble_c_o { 0% {opacity: 1} 100% {opacity: 0.600000} }#containerlab_export_white_ink-big-bubble_to {animation: containerlab_export_white_ink-big-bubble_to__to 1000ms linear infinite normal forwards}@keyframes containerlab_export_white_ink-big-bubble_to__to { 0% {offset-distance: 0%} 50% {offset-distance: 50%} 100% {offset-distance: 100%} }#containerlab_export_white_ink-big-bubble_ts {animation: containerlab_export_white_ink-big-bubble_ts__ts 1000ms linear infinite normal forwards}@keyframes containerlab_export_white_ink-big-bubble_ts__ts { 0% {transform: scale(1,1)} 10% {transform: scale(0.833855,0.806136)} 20% {transform: scale(0.751891,0.728111)} 50% {transform: scale(0.597740,0.607040)} 100% {transform: scale(0.597740,0.607040)} }#containerlab_export_white_ink-big-bubble {animation: containerlab_export_white_ink-big-bubble_c_o 1000ms linear infinite normal forwards}@keyframes containerlab_export_white_ink-big-bubble_c_o { 0% {opacity: 1} 100% {opacity: 0.060000} }]]></style><g id="containerlab_export_white_ink-text" transform="matrix(1 0 0 1 -79.26000213500001 -78.47828994999998)"><g id="containerlab_export_white_ink-g873"><g id="containerlab_export_white_ink-g863"><path id="containerlab_export_white_ink-path845" d="M121.530000,224.900000Q118.818000,224.900000,117.330000,226.796000Q115.842000,228.668000,115.842000,232.364000Q115.842000,236.156000,117.330000,237.908000Q118.818000,239.636000,121.530000,239.636000Q122.322000,239.636000,122.970000,239.492000Q123.642000,239.348000,124.194000,239.132000Q124.746000,238.916000,125.178000,238.652000Q125.610000,238.388000,125.922000,238.148000L126.618000,239.228000Q125.802000,239.924000,124.458000,240.452000Q123.138000,240.980000,121.434000,240.980000Q117.762000,240.980000,116.010000,238.748000Q114.258000,236.516000,114.258000,232.364000Q114.258000,230.396000,114.690000,228.788000Q115.146000,227.156000,116.034000,226.004000Q116.946000,224.852000,118.290000,224.228000Q119.658000,223.580000,121.482000,223.580000Q122.466000,223.580000,123.282000,223.772000Q124.098000,223.964000,124.722000,224.252000Q125.346000,224.516000,125.778000,224.828000Q126.234000,225.116000,126.498000,225.356000L125.730000,226.436000Q125.130000,225.932000,124.098000,225.428000Q123.066000,224.900000,121.530000,224.900000Z" transform="matrix(1 0 0 1 10.55200000000002 18.97864700000000)" fill="rgb(152,162,174)" stroke="none" stroke-width="1"/><path id="containerlab_export_white_ink-path847" d="M129.190000,232.270000Q129.190000,230.302000,129.646000,228.694000Q130.126000,227.062000,131.038000,225.910000Q131.950000,224.758000,133.294000,224.134000Q134.638000,223.486000,136.366000,223.486000Q138.094000,223.486000,139.414000,224.134000Q140.758000,224.758000,141.646000,225.910000Q142.558000,227.062000,143.014000,228.694000Q143.494000,230.302000,143.494000,232.270000Q143.494000,234.238000,143.014000,235.870000Q142.558000,237.478000,141.646000,238.654000Q140.758000,239.806000,139.414000,240.454000Q138.070000,241.078000,136.342000,241.078000Q134.614000,241.078000,133.270000,240.454000Q131.926000,239.806000,131.014000,238.654000Q130.126000,237.478000,129.646000,235.870000Q129.190000,234.238000,129.190000,232.270000ZM130.774000,232.270000Q130.774000,233.950000,131.110000,235.318000Q131.446000,236.662000,132.142000,237.646000Q132.838000,238.606000,133.870000,239.134000Q134.926000,239.662000,136.342000,239.662000Q137.758000,239.662000,138.790000,239.134000Q139.846000,238.606000,140.542000,237.646000Q141.238000,236.662000,141.574000,235.318000Q141.910000,233.950000,141.910000,232.270000Q141.910000,230.590000,141.574000,229.246000Q141.238000,227.878000,140.542000,226.918000Q139.846000,225.958000,138.790000,225.430000Q137.758000,224.902000,136.342000,224.902000Q134.926000,224.902000,133.870000,225.430000Q132.838000,225.958000,132.142000,226.918000Q131.446000,227.878000,131.110000,229.246000Q130.774000,230.590000,130.774000,232.270000Z" transform="matrix(1 0 0 1 10.55200000000002 18.97864700000000)" fill="rgb(152,162,174)" stroke="none" stroke-width="1"/><path id="containerlab_export_white_ink-path849" d="M149.630000,226.340000L149.630000,240.716000L148.166000,240.716000L148.166000,223.844000L149.750000,223.844000L158.126000,238.148000L158.126000,223.844000L159.590000,223.844000L159.590000,240.716000L158.126000,240.716000Z" transform="matrix(1 0 0 1 10.55200000000002 18.97864700000000)" fill="rgb(152,162,174)" stroke="none" stroke-width="1"/><path id="containerlab_export_white_ink-path851" d="M168.630000,225.260000L163.446000,225.260000L163.446000,223.844000L175.302000,223.844000L175.302000,225.260000L170.142000,225.260000L170.142000,240.716000L168.630000,240.716000Z" transform="matrix(1 0 0 1 10.55200000000002 18.97864700000000)" fill="rgb(152,162,174)" stroke="none" stroke-width="1"/><path id="containerlab_export_white_ink-path853" d="M185,236.010000L178.064000,236.010000L176.552000,240.714000L175.112000,240.714000L180.752000,223.842000L182.432000,223.842000L188.096000,240.714000L186.536000,240.714000ZM178.472000,234.690000L184.568000,234.690000L181.544000,225.570000Z" transform="matrix(1 0 0 1 10.55200000000002 18.97864700000000)" fill="rgb(152,162,174)" stroke="none" stroke-width="1"/><path id="containerlab_export_white_ink-path855" d="M193.050000,240.720000L191.538000,240.720000L191.538000,223.848000L193.050000,223.848000Z" transform="matrix(1 0 0 1 10.55200000000002 18.97864700000000)" fill="rgb(152,162,174)" stroke="none" stroke-width="1"/><path id="containerlab_export_white_ink-path857" d="M199.710000,226.340000L199.710000,240.716000L198.246000,240.716000L198.246000,223.844000L199.830000,223.844000L208.206000,238.148000L208.206000,223.844000L209.670000,223.844000L209.670000,240.716000L208.206000,240.716000Z" transform="matrix(1 0 0 1 10.55200000000002 18.97864700000000)" fill="rgb(152,162,174)" stroke="none" stroke-width="1"/><path id="containerlab_export_white_ink-path859" d="M214.890000,223.850000L224.202000,223.850000L224.202000,225.242000L216.402000,225.242000L216.402000,231.242000L222.498000,231.242000L222.498000,232.634000L216.402000,232.634000L216.402000,239.330000L224.442000,239.330000L224.442000,240.722000L214.890000,240.722000Z" transform="matrix(1 0 0 1 10.55200000000002 18.97864700000000)" fill="rgb(152,162,174)" stroke="none" stroke-width="1"/><path id="containerlab_export_white_ink-path861" d="M238.980000,240.720000L237.228000,240.720000L233.100000,233.784000L229.692000,233.784000L229.692000,240.720000L228.204000,240.720000L228.204000,223.848000L232.644000,223.848000Q234.156000,223.848000,235.164000,224.280000Q236.196000,224.712000,236.820000,225.432000Q237.444000,226.128000,237.708000,227.016000Q237.996000,227.880000,237.996000,228.768000Q237.996000,229.704000,237.732000,230.472000Q237.468000,231.240000,237.012000,231.816000Q236.556000,232.392000,235.932000,232.800000Q235.332000,233.208000,234.660000,233.448000ZM236.508000,228.840000Q236.508000,227.160000,235.548000,226.176000Q234.612000,225.192000,232.476000,225.192000L229.692000,225.192000L229.692000,232.464000L232.572000,232.464000Q234.612000,232.464000,235.548000,231.480000Q236.508000,230.496000,236.508000,228.840000Z" transform="matrix(1 0 0 1 10.55200000000002 18.97864700000000)" fill="rgb(152,162,174)" stroke="none" stroke-width="1"/></g><g id="containerlab_export_white_ink-g871"><path id="containerlab_export_white_ink-path865" d="M242.420000,222.720000L244.556000,222.720000L244.556000,240.720000L242.420000,240.720000Z" transform="matrix(1 0 0 1 10.55200000000002 18.97864700000000)" fill="rgb(0,201,255)" stroke="none" stroke-width="1"/><path id="containerlab_export_white_ink-path867" d="M255.970000,235.130000Q255.946000,235.130000,255.658000,235.082000Q255.370000,235.034000,254.938000,235.010000Q254.506000,234.962000,254.002000,234.938000Q253.498000,234.890000,253.066000,234.890000Q252.298000,234.890000,251.746000,235.082000Q251.218000,235.274000,250.882000,235.610000Q250.546000,235.922000,250.378000,236.354000Q250.234000,236.786000,250.234000,237.290000Q250.234000,238.322000,250.906000,238.826000Q251.602000,239.330000,252.706000,239.330000Q253.306000,239.330000,253.882000,239.138000Q254.458000,238.946000,254.914000,238.610000Q255.394000,238.250000,255.682000,237.794000Q255.970000,237.314000,255.970000,236.738000ZM256.114000,240.722000L256.018000,239.378000Q255.466000,240.146000,254.410000,240.602000Q253.354000,241.034000,252.226000,241.034000Q251.506000,241.034000,250.786000,240.842000Q250.066000,240.650000,249.490000,240.218000Q248.914000,239.786000,248.530000,239.066000Q248.170000,238.346000,248.170000,237.290000Q248.170000,235.442000,249.370000,234.338000Q250.570000,233.234000,252.970000,233.234000Q253.354000,233.234000,253.834000,233.258000Q254.314000,233.282000,254.746000,233.330000Q255.178000,233.354000,255.514000,233.402000Q255.850000,233.426000,255.970000,233.450000L255.970000,232.706000Q255.970000,231.386000,255.178000,230.810000Q254.410000,230.234000,252.970000,230.234000Q251.674000,230.234000,250.762000,230.522000Q249.874000,230.810000,249.466000,231.050000L248.818000,229.538000Q249.034000,229.394000,249.418000,229.202000Q249.802000,229.010000,250.354000,228.842000Q250.930000,228.650000,251.650000,228.530000Q252.394000,228.410000,253.306000,228.410000Q255.490000,228.410000,256.762000,229.490000Q258.034000,230.546000,258.034000,232.586000L258.034000,240.722000Z" transform="matrix(1 0 0 1 10.55200000000002 18.97864700000000)" fill="rgb(0,201,255)" stroke="none" stroke-width="1"/><path id="containerlab_export_white_ink-path869" d="M262.190000,222.720000L264.326000,222.720000L264.326000,230.208000Q264.422000,229.992000,264.686000,229.704000Q264.974000,229.392000,265.430000,229.104000Q265.886000,228.816000,266.510000,228.624000Q267.134000,228.408000,267.950000,228.408000Q269.270000,228.408000,270.254000,228.888000Q271.238000,229.368000,271.886000,230.208000Q272.534000,231.048000,272.846000,232.176000Q273.158000,233.280000,273.158000,234.576000Q273.158000,236.352000,272.678000,237.576000Q272.198000,238.776000,271.430000,239.520000Q270.662000,240.264000,269.678000,240.600000Q268.718000,240.912000,267.734000,240.912000Q267.014000,240.912000,266.438000,240.768000Q265.886000,240.648000,265.454000,240.456000Q265.022000,240.264000,264.710000,240.048000Q264.422000,239.832000,264.254000,239.640000L264.158000,240.720000L262.190000,240.720000ZM267.446000,239.064000Q269.054000,239.064000,269.990000,238.008000Q270.950000,236.928000,270.950000,234.576000Q270.950000,233.664000,270.758000,232.896000Q270.566000,232.104000,270.158000,231.552000Q269.750000,230.976000,269.126000,230.664000Q268.526000,230.352000,267.686000,230.352000Q266.030000,230.352000,265.166000,231.504000Q264.302000,232.656000,264.302000,235.056000L264.302000,237.672000Q264.638000,238.128000,265.430000,238.608000Q266.246000,239.064000,267.446000,239.064000Z" transform="matrix(1 0 0 1 10.55200000000002 18.97864700000000)" fill="rgb(0,201,255)" stroke="none" stroke-width="1"/></g></g></g><g id="containerlab_export_white_ink-outer-container" transform="matrix(1.27707402803300 0 0 1.27707402803300 -135.85348004729036 -121.99491568571256)"><g id="containerlab_export_white_ink-g843" transform="matrix(1 0 0 1 0.07761382500030 0.06641805000012)"><g id="containerlab_export_white_ink-bubbles"><g id="containerlab_export_white_ink-small-bubble_to" style="offset-path:path('M205.884199,165.860001C197.074282,167.998330,195.705752,161.169993,195.705752,158.843356C195.597238,154.417121,207.484159,154.853512,204.543302,147.117108');offset-rotate:0deg"><path id="containerlab_export_white_ink-small-bubble" d="M197.090000,165.860000C197.090000,166.332854,196.904804,166.786342,196.575152,167.120701C196.245501,167.455059,195.798398,167.642900,195.332200,167.642900C194.866002,167.642900,194.418899,167.455059,194.089248,167.120701C193.759596,166.786342,193.574400,166.332854,193.574400,165.860000C193.574400,165.387146,193.759596,164.933658,194.089248,164.599299C194.418899,164.264941,194.866002,164.077100,195.332200,164.077100C195.798398,164.077100,196.245501,164.264941,196.575152,164.599299C196.904804,164.933658,197.090000,165.387146,197.090000,165.860000" transform="scale(1.737107,1.656190) translate(-195.332199,-165.860001)" fill="none" stroke="rgb(0,201,255)" stroke-width="0.800000"/></g><g id="containerlab_export_white_ink-mid-bubble_to" style="offset-path:path('M197.413191,161.660004C199.739487,153.100729,206.577824,157.960197,206.367518,150.296087Q197.733947,137.765919,204.968877,131.776987');offset-rotate:0deg"><g id="containerlab_export_white_ink-mid-bubble_ts" transform="scale(1,1)"><path id="containerlab_export_white_ink-mid-bubble" d="M189.620000,161.660000C189.620000,163.125211,188.384843,164.313000,186.861200,164.313000C185.337557,164.313000,184.102400,163.125211,184.102400,161.660000C184.102400,160.194789,185.337557,159.007000,186.861200,159.007000C188.384843,159.007000,189.620000,160.194789,189.620000,161.660000" transform="translate(-186.861191,-161.660004)" fill="none" stroke="rgb(0,201,255)" stroke-width="0.800000"/></g></g><g id="containerlab_export_white_ink-big-bubble_to" style="offset-path:path('M202.937712,152.410004C210.676320,150.141269,203.420795,132.803737,202.846000,130.576097Q201.344264,117.338369,204.543310,117.443650');offset-rotate:0deg"><g id="containerlab_export_white_ink-big-bubble_ts" transform="scale(1,1)"><path id="containerlab_export_white_ink-big-bubble" d="M196.490000,152.410000C196.490000,153.460523,196.057584,154.468018,195.287878,155.210850C194.518173,155.953682,193.474228,156.371000,192.385700,156.371000C191.297172,156.371000,190.253227,155.953682,189.483522,155.210850C188.713816,154.468018,188.281400,153.460523,188.281400,152.410000C188.281400,151.359477,188.713816,150.351982,189.483522,149.609150C190.253227,148.866318,191.297172,148.449000,192.385700,148.449000C193.474228,148.449000,194.518173,148.866318,195.287878,149.609150C196.057584,150.351982,196.490000,151.359477,196.490000,152.410000" transform="translate(-192.385712,-152.410004)" fill="none" stroke="rgb(0,201,255)" stroke-width="0.800000"/></g></g></g><path id="containerlab_export_white_ink-liquid" d="M184.690000,168.960000C184.185000,169.173000,183.162000,169.812000,182.417000,170.380000C180.987000,171.471000,179.261000,171.742000,177.109000,171.214000C175.556000,170.833000,175.446000,171.282000,176.519000,173.615000C183.150000,188.035000,203.367000,188.511000,210.399000,174.414000C211.978000,171.249000,211.832000,170.694000,209.581000,171.316000C207.681000,171.840000,206.401000,171.543000,204.609000,170.159000C202.173000,168.278000,198.913000,168.276000,197.213000,170.155000C195.511000,172.036000,191.852000,171.948000,189.736000,169.977000C188.537000,168.859000,186.097000,168.368000,184.690000,168.960000" transform="matrix(1 0 0 1 10.55200000000002 0)" fill="rgb(0,201,255)" stroke="none" stroke-width="1"/></g><path id="containerlab_export_white_ink-path877" d="M183.880000,108.030000C182.975000,108.336000,180.383000,109.681000,178.119000,111.020000C174.266000,113.298000,167.106000,117.405000,163.002000,119.692000C154.092000,124.657000,150.780000,126.932000,149.402000,129.032000L148.002000,131.167000L148.002000,179.167000L149.497000,181.401000C150.478000,182.867000,151.646000,184.005000,152.897000,184.712000C153.945000,185.305000,155.072000,185.961000,155.402000,186.169000C156.829000,187.070000,162.284000,190.167000,162.443000,190.167000C162.539000,190.167000,163.379000,190.657000,164.310000,191.257000C165.241000,191.856000,166.378000,192.550000,166.837000,192.800000C171.955000,195.575000,173.293000,196.343000,173.833000,196.815000C174.181000,197.119000,174.573000,197.367000,174.706000,197.367000C174.918000,197.367000,184.217000,202.726000,185.802000,203.760000C190.866000,207.068000,195.086000,207.316000,200.002000,204.597000C201.762000,203.623000,203.562000,202.628000,204.002000,202.386000C204.442000,202.144000,205.573000,201.450000,206.515000,200.844000C207.457000,200.237000,208.987000,199.349000,209.915000,198.870000C210.843000,198.391000,213.172000,197.047000,215.090000,195.883000C217.008000,194.719000,218.661000,193.767000,218.762000,193.767000C218.864000,193.767000,221.614000,192.191000,224.874000,190.264000C228.135000,188.337000,231.446000,186.423000,232.233000,186.010000C235.260000,184.422000,236.849000,183.058000,238.102000,180.969000L239.402000,178.802000L239.398000,155.185000L239.394000,131.567000L238.210000,129.501000C237.558000,128.365000,236.345000,126.960000,235.513000,126.380000C233.718000,125.126000,223.946000,119.429000,218.402000,116.404000C217.962000,116.163000,217.332000,115.762000,217.002000,115.512000C216.672000,115.261000,215.502000,114.577000,214.402000,113.990000C213.302000,113.404000,212.049000,112.709000,211.617000,112.446000C202.831000,107.089000,200.603000,106.557000,198.619000,109.343000C197.827000,110.455000,197.802000,111.012000,197.802000,127.549000L197.802000,144.608000L199.302000,145.205000C203.837000,147.012000,204.578000,147.414000,207.187000,149.483000C209.492000,151.312000,214.000800,157.840700,214.000800,159.044700C214.000800,159.338700,213.654000,158.593970,213.963000,159.081000C216.050000,162.378000,215.532000,170.454000,212.910000,175.496000C201.150000,198.109000,167.417000,185.996000,172.764000,161.079000C174.197000,154.401000,182.896000,145.510000,187.890000,145.367000C189.849000,145.310900,189.802000,144.583000,189.802000,127.458000C189.802000,110.441000,189.769000,110.106000,187.943000,108.522000C186.824000,107.552000,185.697000,107.416000,183.880000,108.030000M185.457000,123.404000C185.469000,129.214000,185.461000,135.695000,185.440000,137.806000L185.402000,141.645000L182.424000,143.117000C158.291000,155.044000,166.727000,191.491000,193.602000,191.407000C220.979000,191.322000,229.072000,155.307000,204.515000,142.842000L202.002000,141.567000L202.002000,112.367000L202.981000,112.476000C203.519000,112.536000,204.239000,112.826000,204.581000,113.120000C204.922000,113.413000,206.436000,114.323000,207.945000,115.141000C209.453000,115.959000,211.841000,117.334000,213.252000,118.197000C214.662000,119.061000,215.887000,119.767000,215.975000,119.767000C216.231000,119.767000,228.987000,127.194000,231.574000,128.849000C235.811000,131.561000,235.587000,130.140000,235.696000,154.967000L235.791000,176.367000L234.866000,178.167000C233.953000,179.942000,232.343000,181.304000,229.202000,182.956000C227.541000,183.829000,226.700000,184.321000,225.004000,185.410000C224.453000,185.764000,222.922000,186.649000,221.602000,187.376000C217.875000,189.429000,217.201000,189.816000,210.802000,193.571000C207.502000,195.508000,204.082000,197.480000,203.202000,197.953000C202.322000,198.426000,200.144000,199.658000,198.363000,200.690000C193.439000,203.543000,193.350000,203.521000,182.003000,196.684000C181.563000,196.419000,180.769000,196.007000,180.239000,195.770000C179.710000,195.533000,178.486000,194.805000,177.519000,194.153000C176.553000,193.501000,175.626000,192.967000,175.460000,192.967000C175.294000,192.967000,174.268000,192.398000,173.180000,191.702000C171.072000,190.353000,163.795000,186.167000,163.558000,186.167000C163.481000,186.167000,162.465000,185.582000,161.300000,184.867000C160.135000,184.152000,158.827000,183.349000,158.392000,183.082000C157.958000,182.815000,156.832000,182.196000,155.891000,181.706000C154.950000,181.216000,153.690000,180.174000,153.091000,179.391000L152.002000,177.967000L152.002000,132.347000L152.912000,131.191000C153.756000,130.118000,158.031000,127.004000,158.695000,126.978000C158.856000,126.972000,160.164000,126.247000,161.602000,125.367000C163.040000,124.487000,164.310000,123.767000,164.425000,123.767000C164.540000,123.767000,165.122000,123.432000,165.718000,123.023000C166.848000,122.248000,176.531000,116.640000,180.002000,114.752000C181.102000,114.153000,182.272000,113.435000,182.602000,113.156000C183.346000,112.528000,184.696000,112.215000,185.119000,112.573000C185.293000,112.720000,185.445000,117.594000,185.457000,123.404000" transform="matrix(1 0 0 1 10.55200000000002 0)" fill="rgb(152,162,174)" fill-rule="evenodd" stroke="none" stroke-width="1"/></g></svg>