<svg id="svg" width="218.89" height="198.42" version="1.1" viewBox="0 0 178.89 153.42" xmlns="http://www.w3.org/2000/svg">
 <g transform="translate(-104.26 -97.654)">
  <g fill="none" stroke="#00c9ff" stroke-width=".8">
   <path d="m197.09 165.86a1.7578 1.7829 0 0 1-1.7578 1.7829 1.7578 1.7829 0 0 1-1.7578-1.7829 1.7578 1.7829 0 0 1 1.7578-1.7829 1.7578 1.7829 0 0 1 1.7578 1.7829"/>
   <path d="m189.62 161.66a2.7588 2.653 0 0 1-2.7588 2.653 2.7588 2.653 0 0 1-2.7588-2.653 2.7588 2.653 0 0 1 2.7588-2.653 2.7588 2.653 0 0 1 2.7588 2.653"/>
   <path d="m196.49 152.41a4.1043 3.961 0 0 1-4.1043 3.961 4.1043 3.961 0 0 1-4.1043-3.961 4.1043 3.961 0 0 1 4.1043-3.961 4.1043 3.961 0 0 1 4.1043 3.961"/>
  </g>
  <path d="m184.69 168.96c-0.505 0.213-1.528 0.852-2.273 1.42-1.43 1.091-3.156 1.362-5.308 0.834-1.553-0.381-1.663 0.068-0.59 2.401 6.631 14.42 26.848 14.896 33.88 0.799 1.579-3.165 1.433-3.72-0.818-3.098-1.9 0.524-3.18 0.227-4.972-1.157-2.436-1.881-5.696-1.883-7.396-4e-3 -1.702 1.881-5.361 1.793-7.477-0.178-1.199-1.118-3.639-1.609-5.046-1.017" fill="#00c9ff"/>
 </g>
 <g transform="translate(-104.26 -97.654)">
  <g aria-label="CONTAINERlab">
   <g fill="#001135">
    <path d="m121.53 224.9q-2.712 0-4.2 1.896-1.488 1.872-1.488 5.568 0 3.792 1.488 5.544 1.488 1.728 4.2 1.728 0.792 0 1.44-0.144 0.672-0.144 1.224-0.36t0.984-0.48 0.744-0.504l0.696 1.08q-0.816 0.696-2.16 1.224-1.32 0.528-3.024 0.528-3.672 0-5.424-2.232t-1.752-6.384q0-1.968 0.432-3.576 0.456-1.632 1.344-2.784 0.912-1.152 2.256-1.776 1.368-0.648 3.192-0.648 0.984 0 1.8 0.192t1.44 0.48q0.624 0.264 1.056 0.576 0.456 0.288 0.72 0.528l-0.768 1.08q-0.6-0.504-1.632-1.008-1.032-0.528-2.568-0.528z" style="font-variant-caps:normal;font-variant-east-asian:normal;font-variant-ligatures:normal;font-variant-numeric:normal"/>
    <path d="m129.19 232.27q0-1.968 0.456-3.576 0.48-1.632 1.392-2.784t2.256-1.776q1.344-0.648 3.072-0.648t3.048 0.648q1.344 0.624 2.232 1.776 0.912 1.152 1.368 2.784 0.48 1.608 0.48 3.576t-0.48 3.6q-0.456 1.608-1.368 2.784-0.888 1.152-2.232 1.8-1.344 0.624-3.072 0.624t-3.072-0.624q-1.344-0.648-2.256-1.8-0.888-1.176-1.368-2.784-0.456-1.632-0.456-3.6zm1.584 0q0 1.68 0.336 3.048 0.336 1.344 1.032 2.328 0.696 0.96 1.728 1.488 1.056 0.528 2.472 0.528t2.448-0.528q1.056-0.528 1.752-1.488 0.696-0.984 1.032-2.328 0.336-1.368 0.336-3.048t-0.336-3.024q-0.336-1.368-1.032-2.328t-1.752-1.488q-1.032-0.528-2.448-0.528t-2.472 0.528q-1.032 0.528-1.728 1.488t-1.032 2.328q-0.336 1.344-0.336 3.024z" style="font-variant-caps:normal;font-variant-east-asian:normal;font-variant-ligatures:normal;font-variant-numeric:normal"/>
    <path d="m149.63 226.34v14.376h-1.464v-16.872h1.584l8.376 14.304v-14.304h1.464v16.872h-1.464z" style="font-variant-caps:normal;font-variant-east-asian:normal;font-variant-ligatures:normal;font-variant-numeric:normal"/>
    <path d="m168.63 225.26h-5.184v-1.416h11.856v1.416h-5.16v15.456h-1.512z" style="font-variant-caps:normal;font-variant-east-asian:normal;font-variant-ligatures:normal;font-variant-numeric:normal"/>
    <path d="m185 236.01h-6.936l-1.512 4.704h-1.44l5.64-16.872h1.68l5.664 16.872h-1.56zm-6.528-1.32h6.096l-3.024-9.12z" style="font-variant-caps:normal;font-variant-east-asian:normal;font-variant-ligatures:normal;font-variant-numeric:normal"/>
    <path d="m193.05 240.72h-1.512v-16.872h1.512z" style="font-variant-caps:normal;font-variant-east-asian:normal;font-variant-ligatures:normal;font-variant-numeric:normal"/>
    <path d="m199.71 226.34v14.376h-1.464v-16.872h1.584l8.376 14.304v-14.304h1.464v16.872h-1.464z" style="font-variant-caps:normal;font-variant-east-asian:normal;font-variant-ligatures:normal;font-variant-numeric:normal"/>
    <path d="m214.89 223.85h9.312v1.392h-7.8v6h6.096v1.392h-6.096v6.696h8.04v1.392h-9.552z" style="font-variant-caps:normal;font-variant-east-asian:normal;font-variant-ligatures:normal;font-variant-numeric:normal"/>
    <path d="m238.98 240.72h-1.752l-4.128-6.936h-3.408v6.936h-1.488v-16.872h4.44q1.512 0 2.52 0.432 1.032 0.432 1.656 1.152 0.624 0.696 0.888 1.584 0.288 0.864 0.288 1.752 0 0.936-0.264 1.704t-0.72 1.344-1.08 0.984q-0.6 0.408-1.272 0.648zm-2.472-11.88q0-1.68-0.96-2.664-0.936-0.984-3.072-0.984h-2.784v7.272h2.88q2.04 0 2.976-0.984 0.96-0.984 0.96-2.64z" style="font-variant-caps:normal;font-variant-east-asian:normal;font-variant-ligatures:normal;font-variant-numeric:normal"/>
   </g>
   <g fill="#00c9ff">
    <path d="m242.42 222.72h2.136v18h-2.136z" style="font-variant-caps:normal;font-variant-east-asian:normal;font-variant-ligatures:normal;font-variant-numeric:normal"/>
    <path d="m255.97 235.13q-0.024 0-0.312-0.048t-0.72-0.072q-0.432-0.048-0.936-0.072-0.504-0.048-0.936-0.048-0.768 0-1.32 0.192-0.528 0.192-0.864 0.528-0.336 0.312-0.504 0.744-0.144 0.432-0.144 0.936 0 1.032 0.672 1.536 0.696 0.504 1.8 0.504 0.6 0 1.176-0.192t1.032-0.528q0.48-0.36 0.768-0.816 0.288-0.48 0.288-1.056zm0.144 5.592-0.096-1.344q-0.552 0.768-1.608 1.224-1.056 0.432-2.184 0.432-0.72 0-1.44-0.192t-1.296-0.624-0.96-1.152q-0.36-0.72-0.36-1.776 0-1.848 1.2-2.952t3.6-1.104q0.384 0 0.864 0.024t0.912 0.072q0.432 0.024 0.768 0.072 0.336 0.024 0.456 0.048v-0.744q0-1.32-0.792-1.896-0.768-0.576-2.208-0.576-1.296 0-2.208 0.288-0.888 0.288-1.296 0.528l-0.648-1.512q0.216-0.144 0.6-0.336t0.936-0.36q0.576-0.192 1.296-0.312 0.744-0.12 1.656-0.12 2.184 0 3.456 1.08 1.272 1.056 1.272 3.096v8.136z" style="font-variant-caps:normal;font-variant-east-asian:normal;font-variant-ligatures:normal;font-variant-numeric:normal"/>
    <path d="m262.19 222.72h2.136v7.488q0.096-0.216 0.36-0.504 0.288-0.312 0.744-0.6t1.08-0.48q0.624-0.216 1.44-0.216 1.32 0 2.304 0.48t1.632 1.32 0.96 1.968q0.312 1.104 0.312 2.4 0 1.776-0.48 3-0.48 1.2-1.248 1.944t-1.752 1.08q-0.96 0.312-1.944 0.312-0.72 0-1.296-0.144-0.552-0.12-0.984-0.312t-0.744-0.408q-0.288-0.216-0.456-0.408l-0.096 1.08h-1.968zm5.256 16.344q1.608 0 2.544-1.056 0.96-1.08 0.96-3.432 0-0.912-0.192-1.68-0.192-0.792-0.6-1.344-0.408-0.576-1.032-0.888-0.6-0.312-1.44-0.312-1.656 0-2.52 1.152t-0.864 3.552v2.616q0.336 0.456 1.128 0.936 0.816 0.456 2.016 0.456z" style="font-variant-caps:normal;font-variant-east-asian:normal;font-variant-ligatures:normal;font-variant-numeric:normal"/>
   </g>
  </g>
 </g>
 <g transform="translate(-104.26 -97.654)">
  <path d="m183.88 108.03c-0.905 0.306-3.497 1.651-5.761 2.99-3.853 2.278-11.013 6.385-15.117 8.672-8.91 4.965-12.222 7.24-13.6 9.34l-1.4 2.135v48l1.495 2.234c0.981 1.466 2.149 2.604 3.4 3.311 1.048 0.593 2.175 1.249 2.505 1.457 1.427 0.901 6.882 3.998 7.041 3.998 0.096 0 0.936 0.49 1.867 1.09 0.931 0.599 2.068 1.293 2.527 1.543 5.118 2.775 6.456 3.543 6.996 4.015 0.348 0.304 0.74 0.552 0.873 0.552 0.212 0 9.511 5.359 11.096 6.393 5.064 3.308 9.284 3.556 14.2 0.837 1.76-0.974 3.56-1.969 4-2.211s1.571-0.936 2.513-1.542c0.942-0.607 2.472-1.495 3.4-1.974s3.257-1.823 5.175-2.987 3.571-2.116 3.672-2.116c0.102 0 2.852-1.576 6.112-3.503 3.261-1.927 6.572-3.841 7.359-4.254 3.027-1.588 4.616-2.952 5.869-5.041l1.3-2.167-4e-3 -23.617-4e-3 -23.618-1.184-2.066c-0.652-1.136-1.865-2.541-2.697-3.121-1.795-1.254-11.567-6.951-17.111-9.976-0.44-0.241-1.07-0.642-1.4-0.892-0.33-0.251-1.5-0.935-2.6-1.522-1.1-0.586-2.353-1.281-2.785-1.544-8.786-5.357-11.014-5.889-12.998-3.103-0.792 1.112-0.817 1.669-0.817 18.206v17.059l1.5 0.597c4.535 1.807 5.276 2.209 7.885 4.278 2.305 1.829 6.8138 8.3577 6.8138 9.5617 0 0.294-0.3468-0.45073-0.0378 0.0363 2.087 3.297 1.569 11.373-1.053 16.415-11.76 22.613-45.493 10.5-40.146-14.417 1.433-6.678 10.132-15.569 15.126-15.712 1.959-0.0561 1.912-0.784 1.912-17.909 0-17.017-0.033-17.352-1.859-18.936-1.119-0.97-2.246-1.106-4.063-0.492m1.577 15.374c0.012 5.81 4e-3 12.291-0.017 14.402l-0.038 3.839-2.978 1.472c-24.133 11.927-15.697 48.374 11.178 48.29 27.377-0.085 35.47-36.1 10.913-48.565l-2.513-1.275v-29.2l0.979 0.109c0.538 0.06 1.258 0.35 1.6 0.644 0.341 0.293 1.855 1.203 3.364 2.021 1.508 0.818 3.896 2.193 5.307 3.056 1.41 0.864 2.635 1.57 2.723 1.57 0.256 0 13.012 7.427 15.599 9.082 4.237 2.712 4.013 1.291 4.122 26.118l0.095 21.4-0.925 1.8c-0.913 1.775-2.523 3.137-5.664 4.789-1.661 0.873-2.502 1.365-4.198 2.454-0.551 0.354-2.082 1.239-3.402 1.966-3.727 2.053-4.401 2.44-10.8 6.195-3.3 1.937-6.72 3.909-7.6 4.382s-3.058 1.705-4.839 2.737c-4.924 2.853-5.013 2.831-16.36-4.006-0.44-0.265-1.234-0.677-1.764-0.914-0.529-0.237-1.753-0.965-2.72-1.617-0.966-0.652-1.893-1.186-2.059-1.186s-1.192-0.569-2.28-1.265c-2.108-1.349-9.385-5.535-9.622-5.535-0.077 0-1.093-0.585-2.258-1.3s-2.473-1.518-2.908-1.785c-0.434-0.267-1.56-0.886-2.501-1.376s-2.201-1.532-2.8-2.315l-1.089-1.424v-45.62l0.91-1.156c0.844-1.073 5.119-4.187 5.783-4.213 0.161-6e-3 1.469-0.731 2.907-1.611s2.708-1.6 2.823-1.6 0.697-0.335 1.293-0.744c1.13-0.775 10.813-6.383 14.284-8.271 1.1-0.599 2.27-1.317 2.6-1.596 0.744-0.628 2.094-0.941 2.517-0.583 0.174 0.147 0.326 5.021 0.338 10.831" fill="#001135" fill-rule="evenodd"/>
 </g>
</svg>
